<svg xmlns="http://www.w3.org/2000/svg" xmlns:xlink="http://www.w3.org/1999/xlink" width="169.479" height="169.479" viewBox="0 0 169.479 169.479">
  <defs>
    <linearGradient id="linear-gradient" x1="0.242" y1="0.03" x2="0.553" y2="0.595" gradientUnits="objectBoundingBox">
      <stop offset="0" stop-color="#f2f2f2"/>
      <stop offset="0.079" stop-color="#f6f6f6"/>
      <stop offset="0.322" stop-color="#fdfdfd"/>
      <stop offset="1" stop-color="#fff"/>
    </linearGradient>
    <linearGradient id="linear-gradient-2" x1="0.5" x2="0" y2="1.687" gradientUnits="objectBoundingBox">
      <stop offset="0" stop-color="#29abe2"/>
      <stop offset="0.076" stop-color="#4ab8e6"/>
      <stop offset="0.196" stop-color="#7acaed"/>
      <stop offset="0.32" stop-color="#a3daf2"/>
      <stop offset="0.446" stop-color="#c4e7f7"/>
      <stop offset="0.575" stop-color="#def2fa"/>
      <stop offset="0.707" stop-color="#f0f9fd"/>
      <stop offset="0.846" stop-color="#fbfdfe"/>
      <stop offset="1" stop-color="#fff"/>
    </linearGradient>
  </defs>
  <g id="Group_1230" data-name="Group 1230" transform="translate(-927 -2511)">
    <g id="Group_347" data-name="Group 347" transform="translate(926.387 2511)">
      <g id="Group_346" data-name="Group 346" transform="translate(0)">
        <circle id="Ellipse_7" data-name="Ellipse 7" cx="77.24" cy="77.24" r="77.24" transform="translate(7.5 7.5)" fill="#fff"/>
        <circle id="Ellipse_8" data-name="Ellipse 8" cx="73.938" cy="73.938" r="73.938" transform="translate(0.613 146) rotate(-80.864)" fill="url(#linear-gradient)"/>
      </g>
    </g>
    <g id="_x3C_Group_x3E__4_" transform="translate(975.691 2563)">
      <g id="Group_888" data-name="Group 888" transform="translate(25.042 25.04)">
        <path id="Path_2261" data-name="Path 2261" d="M215.374,227.01l-12.018-12.016-5.825,5.825a2.058,2.058,0,0,1-3.41-.8l-11.653-34.957a2.059,2.059,0,0,1,2.6-2.6l34.957,11.653a2.058,2.058,0,0,1,.8,3.41l-5.825,5.825,12.016,12.018a2.059,2.059,0,0,1,0,2.913l-8.738,8.738A2.059,2.059,0,0,1,215.374,227.01Z" transform="translate(-182.362 -182.344)" fill="url(#linear-gradient-2)"/>
      </g>
      <g id="Group_889" data-name="Group 889" transform="translate(24.718)">
        <path id="Path_2262" data-name="Path 2262" d="M182.06,16.479a2.059,2.059,0,0,1-2.06-2.06V2.06a2.06,2.06,0,1,1,4.12,0V14.419A2.059,2.059,0,0,1,182.06,16.479Z" transform="translate(-180)" fill="url(#linear-gradient-2)"/>
      </g>
      <g id="Group_890" data-name="Group 890" transform="translate(7.24 7.24)">
        <path id="Path_2263" data-name="Path 2263" d="M62.063,64.976l-8.74-8.74a2.06,2.06,0,0,1,2.913-2.913l8.74,8.74a2.06,2.06,0,0,1-2.913,2.913Z" transform="translate(-52.72 -52.72)" fill="url(#linear-gradient-2)"/>
      </g>
      <g id="Group_891" data-name="Group 891" transform="translate(7.24 33.456)">
        <path id="Path_2264" data-name="Path 2264" d="M53.323,255.89a2.059,2.059,0,0,1,0-2.913l8.74-8.74a2.06,2.06,0,0,1,2.913,2.913l-8.74,8.74A2.059,2.059,0,0,1,53.323,255.89Z" transform="translate(-52.72 -243.634)" fill="url(#linear-gradient-2)"/>
      </g>
      <g id="Group_892" data-name="Group 892" transform="translate(33.456 7.24)">
        <path id="Path_2265" data-name="Path 2265" d="M244.236,64.977a2.059,2.059,0,0,1,0-2.913l8.74-8.74a2.06,2.06,0,1,1,2.913,2.913l-8.74,8.74A2.059,2.059,0,0,1,244.236,64.977Z" transform="translate(-243.633 -52.721)" fill="url(#linear-gradient-2)"/>
      </g>
      <g id="Group_893" data-name="Group 893" transform="translate(0 24.718)">
        <path id="Path_2266" data-name="Path 2266" d="M14.419,184.12H2.06a2.06,2.06,0,1,1,0-4.12H14.419a2.06,2.06,0,1,1,0,4.12Z" transform="translate(0 -180)" fill="url(#linear-gradient-2)"/>
      </g>
    </g>
  </g>
</svg>
