<svg xmlns="http://www.w3.org/2000/svg" width="28.125" height="50" viewBox="0 0 28.125 50">
  <g id="app" transform="translate(-14)">
    <path id="Path_3201" data-name="Path 3201" d="M28.81,4.563A.781.781,0,0,0,28.81,3H28.8a.781.781,0,0,0,.008,1.563Z" transform="translate(-3.068 -0.656)" fill="#aedcfc"/>
    <path id="Path_3202" data-name="Path 3202" d="M31.781,4.563h2.344a.781.781,0,0,0,0-1.562H31.781a.781.781,0,0,0,0,1.563Z" transform="translate(-3.719 -0.656)" fill="#aedcfc"/>
    <path id="Path_3203" data-name="Path 3203" d="M42.125,44.531V4.689A4.692,4.692,0,0,0,37.448,0l-.01,0H18.688A4.692,4.692,0,0,0,14,4.687V44.531A5.476,5.476,0,0,0,19.469,50H36.656A5.476,5.476,0,0,0,42.125,44.531Zm-1.562-5.469h-25V6.252h25Zm-25,1.563h25v.781a3.911,3.911,0,0,1-3.906,3.906H19.469a3.911,3.911,0,0,1-3.906-3.906ZM18.688,1.562H37.43l.008,0a3.128,3.128,0,0,1,3.125,3.125h-25v0a3.128,3.128,0,0,1,3.125-3.125ZM36.656,48.438H19.469A3.913,3.913,0,0,1,15.641,45.3a5.451,5.451,0,0,0,3.828,1.57H36.656a5.451,5.451,0,0,0,3.828-1.57A3.913,3.913,0,0,1,36.656,48.438Z" fill="#aedcfc"/>
    <path id="Path_3204" data-name="Path 3204" d="M29,54.344A2.344,2.344,0,1,0,31.344,52,2.347,2.347,0,0,0,29,54.344Zm2.344-.781a.781.781,0,1,1-.781.781A.782.782,0,0,1,31.344,53.563Z" transform="translate(-3.281 -11.375)" fill="#aedcfc"/>
    <path id="Path_3205" data-name="Path 3205" d="M21.906,36.873H35.969a3.911,3.911,0,0,0,3.906-3.906V18.9A3.911,3.911,0,0,0,35.969,15H21.906A3.911,3.911,0,0,0,18,18.9V32.967A3.911,3.911,0,0,0,21.906,36.873ZM19.563,18.9a2.347,2.347,0,0,1,2.344-2.344H35.969A2.347,2.347,0,0,1,38.313,18.9V32.967a2.347,2.347,0,0,1-2.344,2.344H21.906a2.347,2.347,0,0,1-2.344-2.344Z" transform="translate(-0.875 -3.281)" fill="#aedcfc"/>
    <path id="Path_3206" data-name="Path 3206" d="M27.345,30.69a.781.781,0,0,0,.552-1.334l-1.009-1.009,1.009-1.01a.781.781,0,0,0-1.1-1.1l-1.562,1.563a.78.78,0,0,0,0,1.1l1.562,1.562a.779.779,0,0,0,.552.229Z" transform="translate(-2.407 -5.688)" fill="#aedcfc"/>
    <path id="Path_3207" data-name="Path 3207" d="M35.235,30.461a.781.781,0,0,0,1.1,0L37.9,28.9a.78.78,0,0,0,0-1.1L36.34,26.232a.781.781,0,1,0-1.1,1.1l1.009,1.01-1.009,1.009a.78.78,0,0,0,0,1.1Z" transform="translate(-4.595 -5.688)" fill="#aedcfc"/>
    <path id="Path_3208" data-name="Path 3208" d="M30.537,31.212a.779.779,0,0,0,.988-.494l1.561-4.687a.781.781,0,1,0-1.482-.495l-1.562,4.688A.781.781,0,0,0,30.537,31.212Z" transform="translate(-3.501 -5.469)" fill="#aedcfc"/>
    <path id="Path_3209" data-name="Path 3209" d="M29.594,35.188A8.594,8.594,0,1,0,21,26.594,8.6,8.6,0,0,0,29.594,35.188Zm0-15.625a7.031,7.031,0,1,1-7.031,7.031A7.039,7.039,0,0,1,29.594,19.563Z" transform="translate(-1.531 -3.938)" fill="#aedcfc"/>
  </g>
</svg>
