<svg xmlns="http://www.w3.org/2000/svg" width="45.809" height="50" viewBox="0 0 45.809 50">
  <g id="server" transform="translate(-17.474)">
    <g id="Group_1219" data-name="Group 1219" transform="translate(29.826 15.766)">
      <g id="Group_1218" data-name="Group 1218" transform="translate(0)">
        <path id="Path_3210" data-name="Path 3210" d="M126.95,131.475h-5.276a1.2,1.2,0,1,0,0,2.4h5.276a1.2,1.2,0,1,0,0-2.4Z" transform="translate(-120.474 -131.475)" fill="#aedcfc"/>
      </g>
    </g>
    <g id="Group_1221" data-name="Group 1221" transform="translate(29.826 26.439)">
      <g id="Group_1220" data-name="Group 1220" transform="translate(0)">
        <path id="Path_3211" data-name="Path 3211" d="M126.95,220.475h-5.276a1.2,1.2,0,1,0,0,2.4h5.276a1.2,1.2,0,1,0,0-2.4Z" transform="translate(-120.474 -220.475)" fill="#aedcfc"/>
      </g>
    </g>
    <g id="Group_1223" data-name="Group 1223" transform="translate(29.826 36.872)">
      <g id="Group_1222" data-name="Group 1222" transform="translate(0)">
        <path id="Path_3212" data-name="Path 3212" d="M126.95,307.475h-5.276a1.2,1.2,0,0,0,0,2.4h5.276a1.2,1.2,0,1,0,0-2.4Z" transform="translate(-120.474 -307.475)" fill="#aedcfc"/>
      </g>
    </g>
    <g id="Group_1225" data-name="Group 1225" transform="translate(17.474)">
      <g id="Group_1224" data-name="Group 1224" transform="translate(0)">
        <path id="Path_3213" data-name="Path 3213" d="M62.652,25.451,51.97,19.759a1.209,1.209,0,0,0-1.145.007l-.973.531V6.628c0-1.41-.894-3.415-5.179-4.966A33.531,33.531,0,0,0,33.662,0,33.511,33.511,0,0,0,22.653,1.661c-4.285,1.551-5.179,3.557-5.179,4.966V37.556c0,1.41.9,3.416,5.18,4.967a33.545,33.545,0,0,0,11.013,1.661,39.153,39.153,0,0,0,7.244-.651c.5-.1.979-.2,1.448-.317a16.088,16.088,0,0,0,7.091,6.056l1.442.628a1.2,1.2,0,0,0,.954,0l1.618-.7a16.03,16.03,0,0,0,9.818-14.781V26.51A1.2,1.2,0,0,0,62.652,25.451ZM23.467,3.917A31.127,31.127,0,0,1,33.665,2.4a31.141,31.141,0,0,1,10.2,1.518c2.188.791,3.6,1.856,3.6,2.711s-1.414,1.919-3.6,2.711a31.128,31.128,0,0,1-10.2,1.518,31.137,31.137,0,0,1-10.2-1.518c-2.188-.791-3.6-1.856-3.6-2.711S21.279,4.709,23.467,3.917Zm-3.594,6.336a13.559,13.559,0,0,0,2.782,1.34,33.537,33.537,0,0,0,11.012,1.662,33.508,33.508,0,0,0,11.008-1.662,13.523,13.523,0,0,0,2.779-1.34v6.66c0,.855-1.408,1.92-3.6,2.711a31.122,31.122,0,0,1-10.2,1.518,31.119,31.119,0,0,1-10.193-1.518c-2.188-.792-3.6-1.856-3.6-2.711Zm0,10.286a13.545,13.545,0,0,0,2.782,1.34A33.545,33.545,0,0,0,33.667,23.54a33.52,33.52,0,0,0,11.009-1.661,13.523,13.523,0,0,0,2.778-1.34V21.61l-7.037,3.848a1.213,1.213,0,0,0-.638,1.052v4.424a37.178,37.178,0,0,1-6.135.494A31.065,31.065,0,0,1,23.459,29.91c-2.188-.792-3.587-1.856-3.587-2.711V20.539ZM40.458,41.177a36.73,36.73,0,0,1-6.793.608A31.113,31.113,0,0,1,23.47,40.267c-2.188-.791-3.6-1.856-3.6-2.711V30.825a13.559,13.559,0,0,0,2.782,1.34,33.413,33.413,0,0,0,10.992,1.661,39.74,39.74,0,0,0,6.133-.462v1.2a16,16,0,0,0,1.384,6.457C40.924,41.079,40.7,41.129,40.458,41.177Zm20.426-6.756a13.636,13.636,0,0,1-8.358,12.573l-.006,0-1.148.5-.962-.42A13.687,13.687,0,0,1,44.062,41.4a1.255,1.255,0,0,0-.207-.331,13.62,13.62,0,0,1-1.677-6.5V27.22l9.214-5.04,9.494,5.05Z" transform="translate(-17.474)" fill="#aedcfc"/>
      </g>
    </g>
    <g id="Group_1227" data-name="Group 1227" transform="translate(45.883 31.343)">
      <g id="Group_1226" data-name="Group 1226">
        <path id="Path_3214" data-name="Path 3214" d="M265.848,261.8a1.2,1.2,0,0,0-1.673-.172l-5.634,4.584-2.049-2.4a1.2,1.2,0,1,0-1.824,1.557l2.809,3.29c.013.015.027.028.04.042s.03.033.045.048.035.031.053.046.033.029.05.041.038.027.057.039.034.024.052.035.042.022.062.033l.053.028c.022.01.045.018.067.027s.035.015.053.021.048.014.072.02l.053.014c.025.006.051.009.077.013l.051.008c.031,0,.062,0,.094.005l.034,0c.034,0,.068,0,.1,0l.018,0c.028,0,.055-.006.083-.011l.033-.007.067-.015.04-.012.058-.018.043-.017.053-.022.045-.023.048-.025.044-.027.046-.029.042-.031.034-.025,6.543-5.323A1.2,1.2,0,0,0,265.848,261.8Z" transform="translate(-254.38 -261.366)" fill="#aedcfc"/>
      </g>
    </g>
  </g>
</svg>
