<svg xmlns="http://www.w3.org/2000/svg" width="53" height="50.152" viewBox="0 0 53 50.152">
  <g id="promotion" transform="translate(0 0)">
    <path id="Path_3219" data-name="Path 3219" d="M123.516,291.507a1.035,1.035,0,1,0-1.414-.379A1.036,1.036,0,0,0,123.516,291.507Zm0,0" transform="translate(-109.339 -259.599)" fill="#aedcfc"/>
    <path id="Path_3220" data-name="Path 3220" d="M9.936,59.093l5.213,9.03a4.14,4.14,0,1,0,7.172-4.14L19.215,58.6,21.9,57.05a1.035,1.035,0,0,0,.379-1.414L20.937,53.3l19.827-3.889a3.1,3.1,0,0,0,2.517-4.653L39.841,38.8l2.2-3.33a1.036,1.036,0,0,0,.033-1.088L40,30.8a1.037,1.037,0,0,0-.959-.516l-3.983.239-3.819-6.615a3.078,3.078,0,0,0-2.651-1.552h-.04a3.078,3.078,0,0,0-2.615,1.432L12.414,41.014,3.623,46.089a7.246,7.246,0,0,0,6.312,13Zm10.592,5.925a2.07,2.07,0,0,1-3.586,2.07l-5.176-8.966,3.586-2.07,5.176,8.966ZM18.18,56.809l-1.035-1.793,1.793-1.035,1.035,1.793Zm20.349-24.42,1.431,2.478L38.684,36.8l-2.466-4.271ZM27.668,24.922a1.035,1.035,0,0,1,1.78.021L41.488,45.8a1.035,1.035,0,0,1-.871,1.552,3.8,3.8,0,0,0-.568.1L27.314,25.386c.267-.344.3-.377.355-.464Zm-1.732,2.219L37.9,47.867,19.843,51.409,14.352,41.9ZM2.764,54.952a5.172,5.172,0,0,1,1.894-7.07l8.068-4.658L17.9,52.188,9.834,56.847a5.182,5.182,0,0,1-7.07-1.895Zm0,0" transform="translate(0 -20.041)" fill="#aedcfc"/>
    <path id="Path_3221" data-name="Path 3221" d="M49.234,310.09a1.035,1.035,0,0,0-1.414-.379l-1.793,1.035a1.036,1.036,0,0,1-1.414-.379,1.035,1.035,0,1,0-1.793,1.035,3.109,3.109,0,0,0,4.242,1.137l1.793-1.035a1.035,1.035,0,0,0,.379-1.414Zm0,0" transform="translate(-38.264 -277.527)" fill="#aedcfc"/>
    <path id="Path_3222" data-name="Path 3222" d="M442.575,42.612l-5.768,3.21a1.035,1.035,0,1,0,1.007,1.809l5.768-3.21a1.035,1.035,0,0,0-1.006-1.809Zm0,0" transform="translate(-391.114 -38.083)" fill="#aedcfc"/>
    <path id="Path_3223" data-name="Path 3223" d="M445.366,137.728l-4-1.072a1.035,1.035,0,1,0-.536,2l4,1.072a1.035,1.035,0,1,0,.535-2Zm0,0" transform="translate(-394.51 -122.478)" fill="#aedcfc"/>
    <path id="Path_3224" data-name="Path 3224" d="M384.6.768l-1.073,4a1.035,1.035,0,0,0,2,.536l1.072-4a1.035,1.035,0,1,0-2-.536Zm0,0" transform="translate(-343.795)" fill="#aedcfc"/>
  </g>
</svg>
