<svg xmlns="http://www.w3.org/2000/svg" xmlns:xlink="http://www.w3.org/1999/xlink" width="50" height="50" viewBox="0 0 50 50">
  <defs>
    <clipPath id="clip-path">
      <rect id="Rectangle_1122" data-name="Rectangle 1122" width="50" height="50" transform="translate(916 3064)" fill="#aedcfc"/>
    </clipPath>
  </defs>
  <g id="Mask_Group_6" data-name="Mask Group 6" transform="translate(-916 -3064)" clip-path="url(#clip-path)">
    <g id="money-bag" transform="translate(916 3064)">
      <path id="Path_122" data-name="Path 122" d="M23.544,45.8a1.467,1.467,0,0,1-1.465-1.465,1.465,1.465,0,0,0-2.93,0,4.4,4.4,0,0,0,2.945,4.148v1.283a1.465,1.465,0,0,0,2.93,0V48.473a4.394,4.394,0,0,0-1.48-8.532,1.465,1.465,0,1,1,1.465-1.465,1.465,1.465,0,1,0,2.93,0,4.4,4.4,0,0,0-2.914-4.137V32.188a1.465,1.465,0,1,0-2.93,0v2.14a4.394,4.394,0,0,0,1.449,8.543,1.465,1.465,0,0,1,0,2.93Zm0,0" transform="translate(-4.419 -7.09)" fill="#aedcfc"/>
      <path id="Path_123" data-name="Path 123" d="M5.971,47.608C9.019,49.24,13.2,50,19.141,50c4.83,0,8.466-.5,11.29-1.565A4.386,4.386,0,0,0,33.789,50H45.605a4.392,4.392,0,0,0,3.272-7.324,4.384,4.384,0,0,0,0-5.859,4.384,4.384,0,0,0,0-5.859,4.392,4.392,0,0,0-3.272-7.324H33.789c-.143,0-.284.007-.423.021a20.06,20.06,0,0,0-5.091-4.419,4.39,4.39,0,0,0-1.395-6.9l2.442-7.489A1.465,1.465,0,0,0,27.93,2.93H23.283A4.394,4.394,0,0,0,15,2.93H10.351A1.465,1.465,0,0,0,8.959,4.849L11.4,12.338a4.39,4.39,0,0,0-1.393,6.9A20.9,20.9,0,0,0,0,36.816c0,5.04,2.009,8.67,5.971,10.791Zm41.1-13.721a1.467,1.467,0,0,1-1.465,1.465H33.789a1.465,1.465,0,0,1,0-2.93H45.605A1.467,1.467,0,0,1,47.07,33.887Zm0,5.859a1.467,1.467,0,0,1-1.465,1.465H33.789a1.465,1.465,0,0,1,0-2.93H45.605A1.467,1.467,0,0,1,47.07,39.746ZM45.605,47.07H33.789a1.465,1.465,0,0,1,0-2.93H45.605a1.465,1.465,0,1,1,0,2.93ZM47.07,28.027a1.467,1.467,0,0,1-1.465,1.465H33.789a1.465,1.465,0,0,1,0-2.93H45.605A1.467,1.467,0,0,1,47.07,28.027ZM24.958,17.773H13.281a1.465,1.465,0,0,1,0-2.929H25a1.465,1.465,0,0,1,0,2.929h-.042ZM16.211,5.859a1.465,1.465,0,0,0,1.465-1.465,1.465,1.465,0,1,1,2.93,0v2.93a1.465,1.465,0,0,0,2.93,0V5.859h2.376l-1.974,6.055H14.344L12.37,5.859ZM13.567,20.7H24.709a16.554,16.554,0,0,1,5.926,4.269,4.384,4.384,0,0,0-.117,5.985,4.384,4.384,0,0,0,0,5.859,4.384,4.384,0,0,0,0,5.859,4.377,4.377,0,0,0-1.123,2.93c0,.03,0,.06,0,.09-2.478.936-5.779,1.375-10.256,1.375-5.435,0-9.181-.65-11.787-2.045C4.335,43.409,2.93,40.8,2.93,36.816A17.773,17.773,0,0,1,13.567,20.7Zm0,0" transform="translate(0 0)" fill="#aedcfc"/>
    </g>
  </g>
</svg>
