<svg xmlns="http://www.w3.org/2000/svg" xmlns:xlink="http://www.w3.org/1999/xlink" width="391.875" height="419.596" viewBox="0 0 391.875 419.596">
  <defs>
    <linearGradient id="linear-gradient" x1="-0.012" y1="0.855" x2="0.824" y2="0.345" gradientUnits="objectBoundingBox">
      <stop offset="0" stop-color="#a3c6ff"/>
      <stop offset="1" stop-color="#d7e7ff"/>
    </linearGradient>
    <linearGradient id="linear-gradient-2" x1="0.568" y1="0.164" x2="0.422" y2="0.877" gradientUnits="objectBoundingBox">
      <stop offset="0" stop-color="#d1e8ff"/>
      <stop offset="1" stop-color="#83aaf2"/>
    </linearGradient>
    <linearGradient id="linear-gradient-3" x1="0.558" y1="0.332" x2="0.334" y2="1.031" gradientUnits="objectBoundingBox">
      <stop offset="0" stop-color="#282ed6"/>
      <stop offset="1" stop-color="#1f1982"/>
    </linearGradient>
    <linearGradient id="linear-gradient-4" x1="0.53" y1="0.474" x2="1.74" y2="-0.121" xlink:href="#linear-gradient-3"/>
    <linearGradient id="linear-gradient-5" x1="0.502" y1="0.169" x2="0.361" y2="0.873" xlink:href="#linear-gradient-2"/>
    <linearGradient id="linear-gradient-6" x1="0.563" y1="0.329" x2="0.4" y2="0.828" xlink:href="#linear-gradient-3"/>
    <linearGradient id="linear-gradient-7" x1="0.499" y1="0.169" x2="0.181" y2="0.87" xlink:href="#linear-gradient-2"/>
    <linearGradient id="linear-gradient-8" x1="0.579" y1="0.257" x2="0.372" y2="0.894" gradientUnits="objectBoundingBox">
      <stop offset="0" stop-color="#161a83"/>
      <stop offset="1" stop-color="#151981"/>
    </linearGradient>
    <linearGradient id="linear-gradient-9" x1="0.579" y1="0.257" x2="0.372" y2="0.894" gradientUnits="objectBoundingBox">
      <stop offset="0" stop-color="#161a86"/>
      <stop offset="1" stop-color="#161981"/>
    </linearGradient>
    <linearGradient id="linear-gradient-10" x1="0.579" y1="0.257" x2="0.372" y2="0.894" gradientUnits="objectBoundingBox">
      <stop offset="0" stop-color="#171b88"/>
      <stop offset="1" stop-color="#161981"/>
    </linearGradient>
    <linearGradient id="linear-gradient-11" x1="0.579" y1="0.257" x2="0.372" y2="0.894" gradientUnits="objectBoundingBox">
      <stop offset="0" stop-color="#171b8a"/>
      <stop offset="1" stop-color="#161981"/>
    </linearGradient>
    <linearGradient id="linear-gradient-12" x1="0.579" y1="0.257" x2="0.372" y2="0.894" gradientUnits="objectBoundingBox">
      <stop offset="0" stop-color="#181c8d"/>
      <stop offset="1" stop-color="#161981"/>
    </linearGradient>
    <linearGradient id="linear-gradient-13" x1="0.579" y1="0.257" x2="0.372" y2="0.894" gradientUnits="objectBoundingBox">
      <stop offset="0" stop-color="#181d8f"/>
      <stop offset="1" stop-color="#171981"/>
    </linearGradient>
    <linearGradient id="linear-gradient-14" x1="0.579" y1="0.257" x2="0.372" y2="0.894" gradientUnits="objectBoundingBox">
      <stop offset="0" stop-color="#191d92"/>
      <stop offset="1" stop-color="#171981"/>
    </linearGradient>
    <linearGradient id="linear-gradient-15" x1="0.579" y1="0.257" x2="0.372" y2="0.894" gradientUnits="objectBoundingBox">
      <stop offset="0" stop-color="#191e94"/>
      <stop offset="1" stop-color="#171981"/>
    </linearGradient>
    <linearGradient id="linear-gradient-16" x1="0.579" y1="0.257" x2="0.372" y2="0.894" gradientUnits="objectBoundingBox">
      <stop offset="0" stop-color="#1a1e96"/>
      <stop offset="1" stop-color="#181981"/>
    </linearGradient>
    <linearGradient id="linear-gradient-17" x1="0.579" y1="0.257" x2="0.372" y2="0.894" gradientUnits="objectBoundingBox">
      <stop offset="0" stop-color="#1a1f99"/>
      <stop offset="1" stop-color="#181981"/>
    </linearGradient>
    <linearGradient id="linear-gradient-18" x1="0.579" y1="0.257" x2="0.372" y2="0.894" gradientUnits="objectBoundingBox">
      <stop offset="0" stop-color="#1b1f9b"/>
      <stop offset="1" stop-color="#181981"/>
    </linearGradient>
    <linearGradient id="linear-gradient-19" x1="0.579" y1="0.257" x2="0.372" y2="0.894" gradientUnits="objectBoundingBox">
      <stop offset="0" stop-color="#1b209d"/>
      <stop offset="1" stop-color="#181981"/>
    </linearGradient>
    <linearGradient id="linear-gradient-20" x1="0.579" y1="0.257" x2="0.372" y2="0.894" gradientUnits="objectBoundingBox">
      <stop offset="0" stop-color="#1c21a0"/>
      <stop offset="1" stop-color="#191981"/>
    </linearGradient>
    <linearGradient id="linear-gradient-21" x1="0.579" y1="0.257" x2="0.372" y2="0.894" gradientUnits="objectBoundingBox">
      <stop offset="0" stop-color="#1c21a2"/>
      <stop offset="1" stop-color="#191981"/>
    </linearGradient>
    <linearGradient id="linear-gradient-22" x1="0.579" y1="0.257" x2="0.372" y2="0.894" gradientUnits="objectBoundingBox">
      <stop offset="0" stop-color="#1d22a4"/>
      <stop offset="1" stop-color="#191981"/>
    </linearGradient>
    <linearGradient id="linear-gradient-23" x1="0.579" y1="0.257" x2="0.372" y2="0.894" gradientUnits="objectBoundingBox">
      <stop offset="0" stop-color="#1d22a7"/>
      <stop offset="1" stop-color="#191981"/>
    </linearGradient>
    <linearGradient id="linear-gradient-24" x1="0.579" y1="0.257" x2="0.372" y2="0.894" gradientUnits="objectBoundingBox">
      <stop offset="0" stop-color="#1e23a9"/>
      <stop offset="1" stop-color="#1a1981"/>
    </linearGradient>
    <linearGradient id="linear-gradient-25" x1="0.579" y1="0.257" x2="0.372" y2="0.894" gradientUnits="objectBoundingBox">
      <stop offset="0" stop-color="#1e23ab"/>
      <stop offset="1" stop-color="#1a1982"/>
    </linearGradient>
    <linearGradient id="linear-gradient-26" x1="0.579" y1="0.257" x2="0.372" y2="0.894" gradientUnits="objectBoundingBox">
      <stop offset="0" stop-color="#1f24ae"/>
      <stop offset="1" stop-color="#1a1982"/>
    </linearGradient>
    <linearGradient id="linear-gradient-27" x1="0.579" y1="0.257" x2="0.372" y2="0.894" gradientUnits="objectBoundingBox">
      <stop offset="0" stop-color="#2025b0"/>
      <stop offset="1" stop-color="#1b1982"/>
    </linearGradient>
    <linearGradient id="linear-gradient-28" x1="0.579" y1="0.257" x2="0.372" y2="0.894" gradientUnits="objectBoundingBox">
      <stop offset="0" stop-color="#2025b3"/>
      <stop offset="1" stop-color="#1b1982"/>
    </linearGradient>
    <linearGradient id="linear-gradient-29" x1="0.579" y1="0.257" x2="0.372" y2="0.894" gradientUnits="objectBoundingBox">
      <stop offset="0" stop-color="#2126b5"/>
      <stop offset="1" stop-color="#1b1982"/>
    </linearGradient>
    <linearGradient id="linear-gradient-30" x1="0.579" y1="0.257" x2="0.372" y2="0.894" gradientUnits="objectBoundingBox">
      <stop offset="0" stop-color="#2126b7"/>
      <stop offset="1" stop-color="#1b1982"/>
    </linearGradient>
    <linearGradient id="linear-gradient-31" x1="0.579" y1="0.257" x2="0.372" y2="0.894" gradientUnits="objectBoundingBox">
      <stop offset="0" stop-color="#2227ba"/>
      <stop offset="1" stop-color="#1c1982"/>
    </linearGradient>
    <linearGradient id="linear-gradient-32" x1="0.579" y1="0.257" x2="0.372" y2="0.894" gradientUnits="objectBoundingBox">
      <stop offset="0" stop-color="#2228bc"/>
      <stop offset="1" stop-color="#1c1982"/>
    </linearGradient>
    <linearGradient id="linear-gradient-33" x1="0.579" y1="0.257" x2="0.372" y2="0.894" gradientUnits="objectBoundingBox">
      <stop offset="0" stop-color="#2328be"/>
      <stop offset="1" stop-color="#1c1982"/>
    </linearGradient>
    <linearGradient id="linear-gradient-34" x1="0.579" y1="0.257" x2="0.372" y2="0.894" gradientUnits="objectBoundingBox">
      <stop offset="0" stop-color="#2329c1"/>
      <stop offset="1" stop-color="#1c1982"/>
    </linearGradient>
    <linearGradient id="linear-gradient-35" x1="0.579" y1="0.257" x2="0.372" y2="0.894" gradientUnits="objectBoundingBox">
      <stop offset="0" stop-color="#2429c3"/>
      <stop offset="1" stop-color="#1d1982"/>
    </linearGradient>
    <linearGradient id="linear-gradient-36" x1="0.579" y1="0.257" x2="0.372" y2="0.894" gradientUnits="objectBoundingBox">
      <stop offset="0" stop-color="#242ac5"/>
      <stop offset="1" stop-color="#1d1982"/>
    </linearGradient>
    <linearGradient id="linear-gradient-37" x1="0.579" y1="0.257" x2="0.372" y2="0.894" gradientUnits="objectBoundingBox">
      <stop offset="0" stop-color="#252ac8"/>
      <stop offset="1" stop-color="#1d1982"/>
    </linearGradient>
    <linearGradient id="linear-gradient-38" x1="0.579" y1="0.257" x2="0.372" y2="0.894" gradientUnits="objectBoundingBox">
      <stop offset="0" stop-color="#252bca"/>
      <stop offset="1" stop-color="#1e1982"/>
    </linearGradient>
    <linearGradient id="linear-gradient-39" x1="0.579" y1="0.257" x2="0.372" y2="0.894" gradientUnits="objectBoundingBox">
      <stop offset="0" stop-color="#262ccd"/>
      <stop offset="1" stop-color="#1e1982"/>
    </linearGradient>
    <linearGradient id="linear-gradient-40" x1="0.579" y1="0.257" x2="0.372" y2="0.894" gradientUnits="objectBoundingBox">
      <stop offset="0" stop-color="#262ccf"/>
      <stop offset="1" stop-color="#1e1982"/>
    </linearGradient>
    <linearGradient id="linear-gradient-41" x1="0.579" y1="0.257" x2="0.372" y2="0.894" gradientUnits="objectBoundingBox">
      <stop offset="0" stop-color="#272dd1"/>
      <stop offset="1" stop-color="#1e1982"/>
    </linearGradient>
    <linearGradient id="linear-gradient-42" x1="0.579" y1="0.257" x2="0.372" y2="0.894" gradientUnits="objectBoundingBox">
      <stop offset="0" stop-color="#272dd4"/>
      <stop offset="1" stop-color="#1f1982"/>
    </linearGradient>
    <linearGradient id="linear-gradient-43" x1="0.579" y1="0.257" x2="0.372" y2="0.894" xlink:href="#linear-gradient-3"/>
    <linearGradient id="linear-gradient-44" x1="0.419" y1="0.73" x2="0.62" y2="0.177" xlink:href="#linear-gradient-3"/>
    <linearGradient id="linear-gradient-45" x1="0.584" y1="0.28" x2="0.392" y2="0.87" xlink:href="#linear-gradient-3"/>
    <linearGradient id="linear-gradient-46" x1="0.539" y1="0.526" x2="0.416" y2="0.289" gradientUnits="objectBoundingBox">
      <stop offset="0" stop-color="#ff8a78"/>
      <stop offset="1" stop-color="#ffa799"/>
    </linearGradient>
    <linearGradient id="linear-gradient-47" x1="0.591" y1="0.724" x2="0.465" y2="0.426" gradientUnits="objectBoundingBox">
      <stop offset="0" stop-color="#1c8ef4"/>
      <stop offset="1" stop-color="#00cfdd"/>
    </linearGradient>
    <linearGradient id="linear-gradient-48" x1="0.494" y1="0.469" x2="0.435" y2="0.847" gradientUnits="objectBoundingBox">
      <stop offset="0" stop-color="#3e4795"/>
      <stop offset="1" stop-color="#273088"/>
    </linearGradient>
    <linearGradient id="linear-gradient-49" x1="0.79" y1="-0.029" x2="0.246" y2="0.595" xlink:href="#linear-gradient-48"/>
    <linearGradient id="linear-gradient-50" x1="0.551" y1="0.458" x2="0.616" y2="0.837" xlink:href="#linear-gradient-48"/>
    <linearGradient id="linear-gradient-51" x1="0.732" y1="-0.012" x2="0.228" y2="0.794" xlink:href="#linear-gradient-48"/>
    <linearGradient id="linear-gradient-52" x1="0.733" y1="0.863" x2="0.368" y2="0.283" xlink:href="#linear-gradient-47"/>
    <linearGradient id="linear-gradient-53" x1="0.68" y1="0.284" x2="0.367" y2="0.643" xlink:href="#linear-gradient-46"/>
    <linearGradient id="linear-gradient-54" x1="0.611" y1="0.315" x2="0.437" y2="0.79" gradientUnits="objectBoundingBox">
      <stop offset="0" stop-color="#ffb89e"/>
      <stop offset="1" stop-color="#ffa799"/>
    </linearGradient>
    <linearGradient id="linear-gradient-55" x1="0.988" y1="0.187" x2="0.331" y2="0.82" gradientUnits="objectBoundingBox">
      <stop offset="0" stop-color="#8a4791"/>
      <stop offset="1" stop-color="#562e65"/>
    </linearGradient>
    <linearGradient id="linear-gradient-56" x1="0.319" y1="0.914" x2="0.496" y2="0.442" xlink:href="#linear-gradient-47"/>
  </defs>
  <g id="Group_1126" data-name="Group 1126" transform="translate(-1469.354 -409.011)">
    <g id="Group_1125" data-name="Group 1125" transform="translate(1469.354 409.011)">
      <g id="Group_1095" data-name="Group 1095" transform="translate(286.551 46.702)" opacity="0.7">
        <g id="Group_1093" data-name="Group 1093" transform="translate(0 76.085)">
          <path id="Path_2983" data-name="Path 2983" d="M2460.224,866.762c-.97,4.279-8.371,4.22-15.2,2.6-2.478-.591-9.969-3.492-10.311-1.1-.192.846,2.52,3.778,5.429,6.828,2.6,2.725,10.585,9.608,7.532,14.723-2.771,4.642-14.853-3.178-18.4-6.242-12.157-10.483-12.788-7.207-3.107,3.659,3.884,4.36,7.171,10.273,8,13.731.421,1.763.344,3.324-1.675,3.427-2.307.117-6.745-1.556-13.323-3.889-15.04-5.339-26.879-14.222-44.491,3.329,2.7-22.391,6.064-40.308,9.657-60.874.8-4.583,1.719-9.393,2.728-13.85,1.426-6.287,3.039-11.871,4.783-15.12a13.472,13.472,0,0,1,1.346-2.1l.034-.04c2.6-3.154,4.281.124,3.695,8.424-.254,3.644-.572,7.116-.953,11.131-.533,5.621-.627,9.2.011,9.36.712.172,1.96-4.155,4.8-14.171,3.666-12.923,9-28.845,12.339-26.888,1.1.639,1.752,4.662,1.521,14.989-.7,18.406,2.487,5.64,6.1-2.935,1.962-4.949,6.493-20.959,10.477-16.379,1.659,1.912.413,8.985-.825,14.442-.283,1.246-.564,2.408-.811,3.4-.2.795-.37,1.52-.521,2.183-1.98,8.736.007,6.342,3.955-.825a48.562,48.562,0,0,1,5.883-9.008c7.029-7.608,7.515-.5,5.907,6.584-.172.759-.368,1.518-.583,2.258-.774,2.676-1.641,5.19-2.077,7.11-.7,3.081-.287,4.637,3.4,2.893a24.077,24.077,0,0,1,6.369-1.926c5.571-.93,8.245.163,9.721,5.238a7.125,7.125,0,0,1,.035,3.588c-.826,3.647-3.99,7.587-7.887,10.5-3.546,2.663-6.919,4.689-7.51,7.3a3.687,3.687,0,0,0-.056,1.334c.449,3.3,5.42,6.336,9.222,8.884C2459.456,862.015,2460.714,864.6,2460.224,866.762Z" transform="translate(-2372.903 -794.553)" fill-rule="evenodd" fill="url(#linear-gradient)"/>
          <path id="Path_2984" data-name="Path 2984" d="M2455.662,894.776a184.053,184.053,0,0,0-34.417,23.209,87.9,87.9,0,0,1,16.119,7.738c-5.947-2.194-12.1-4.28-17.978-6.169-6.187,5.277-12.184,10.9-18,16.739-2.194,2.2-4.444,4.563-6.719,7.016,7.567,4.151,14.028,9.308,19.909,14.2-7.513-4.067-14.323-8.548-21.744-12.212-8.147,8.9-16.514,18.789-23.733,26.864,5.7-10.561,16.108-23.835,25.825-34.211,1.7-9.609,5.285-29.214,8.551-37.191-1.364,6.925-3.893,24.116-5.472,33.976q.931-.948,1.844-1.852a202.79,202.79,0,0,1,25-20.326l.024-.091a135.592,135.592,0,0,1,7.611-20.536c-1.773,6.59-3.825,12.7-5.447,19.111C2437.11,904.139,2447.505,898.084,2455.662,894.776Z" transform="translate(-2369.103 -860.919)" fill="#a1c3ff" fill-rule="evenodd" opacity="0.5"/>
        </g>
        <g id="Group_1094" data-name="Group 1094" transform="translate(11.965)">
          <path id="Path_2985" data-name="Path 2985" d="M2447.69,591.649c4.507-4.837,23.807-13.025,24.018-2.935s-13.98-.628-24.018,2.935Zm-25.815,62.419a11.228,11.228,0,0,0,.071-1.456c8.936-5.113,24.318.843,21.582-8.541-2.63-9.021-17.124,1.559-21.606,7.775-.422-7.938-6.109-23.786-13.224-18.072-7.521,6.04,7.978,9.954,12.607,19.006-.074.124-.144.247-.207.365.1-.067.194-.129.292-.193a11.625,11.625,0,0,1,.484,1.115Zm4.105-17.6a11.872,11.872,0,0,0-.416-1.236c-.074.04-.149.078-.223.12.054-.083.112-.168.171-.253-3.834-9.4-18.88-14.665-10.865-20.01,7.57-5.048,11.831,11.131,11.577,19.1,4.961-5.792,20.432-15.144,22.261-5.894,1.9,9.6-12.948,2.273-22.3,6.622a11.285,11.285,0,0,1-.207,1.549Zm5.491-16.97a11.063,11.063,0,0,0,.454-1.417c10-3.033,23.706,7.151,23.5-2.766-.2-9.678-17.968-2.539-23.393,2.329,1.748-7.644.443-24.88-8.013-21.166-9.24,4.058,6.458,12.415,7.453,23.02Zm44.54-50.37c4.506-4.837,23.806-13.025,24.017-2.936s-13.98-.628-24.017,2.936ZM2459.5,579.638c4.892-4.447,13.312-23.647,3.226-23.98s.459,13.986-3.226,23.98Zm-11.258,11.425c3.586-5.554,6.8-26.271-3.036-24s4.033,13.4,3.036,24Zm-9.557,13.717c-.339-10.646-15.49-19.955-6.019-23.436s8.881,17.476,6.019,23.436Zm.636-.89c10.038-3.564,24.228,7.153,24.017-2.936s-19.51-1.9-24.017,2.936Zm19.629-23.583c10.038-3.563,24.229,7.154,24.017-2.935S2463.459,575.469,2458.953,580.307Z" transform="translate(-2406.672 -555.652)" fill="#d6e6ff" fill-rule="evenodd" opacity="0.5"/>
          <path id="Path_2986" data-name="Path 2986" d="M2428.557,647.274c.863-3.664,1.851-7.327,2.968-10.96-1.029-4.13-3.776-12.383-10.046-17.11,6.731,3.169,9.341,11.909,10.206,16.592a152.227,152.227,0,0,1,5.915-15.906c-.219-3.985-1.344-13.164-6.964-19.19,6.348,4.477,7.218,14.157,7.174,18.714a126.658,126.658,0,0,1,7.16-13.862c.064-3.757-.352-13.388-5.762-19.958,6.291,5.046,6.343,15.326,5.965,19.621a101.372,101.372,0,0,1,9.637-13.427c.534-3.781,1.28-13.3-3.23-20.436,5.582,5.766,4.386,15.9,3.475,20.152a80.408,80.408,0,0,1,11.637-11.114c1.512-3.627,4.541-12.479,2.053-20.415,3.841,6.872.3,16.133-1.7,20.141a66.316,66.316,0,0,1,20.64-10.763,31.362,31.362,0,0,1,7.137-1.785q.507-.1,1.018-.187l-.546.136a15.744,15.744,0,0,1,9.464,1.694c-5.59-1.827-11.671-.9-16.043.318a70.383,70.383,0,0,0-21.388,12.42c3.908-1.926,13.425-5.554,20.374-1.559-8.247-2.695-17.565.6-20.882,1.989a85.437,85.437,0,0,0-10.545,10.81c4.03-1.948,13.336-5.381,20.164-1.456-7.914-2.587-16.814.346-20.451,1.812a105.387,105.387,0,0,0-8.427,12.056c3.817-1.906,13.479-5.671,20.512-1.628-8.084-2.642-17.2.474-20.679,1.9a129.609,129.609,0,0,0-7.14,13.789c4.16-1.964,13.218-5.173,19.9-1.331-7.632-2.495-16.181.144-20.042,1.65a154.294,154.294,0,0,0-6.105,16.242c3.814-2.671,12.074-7.27,19.243-4.674-7.879-1.123-15.77,2.875-19.358,5.043-1.208,3.879-2.2,7.568-2.994,10.951-.48,2.036-.932,4.134-1.356,6.279,3.549-2.992,11.394-8.339,18.784-6.381-7.963-.423-15.484,4.276-18.856,6.748-1.077,5.512-1.96,11.344-2.609,17.332l-2.818,6.35a209.505,209.505,0,0,1,3.1-23.913c-1.393-4.028-4.857-11.993-11.514-16.142,6.964,2.554,10.337,10.986,11.621,15.584C2427.685,651.157,2428.126,649.1,2428.557,647.274Z" transform="translate(-2412.776 -558.598)" fill="#a1c3ff" fill-rule="evenodd" opacity="0.5"/>
        </g>
      </g>
      <path id="Path_2987" data-name="Path 2987" d="M2025.36,1527.376l-123.576-70.8c-3.248-1.484-7.9-2.665-11.206-.944-3.016,1.569-7.983,4.781-10.178,6.033-1.668.951-7.459,4.421-3.852,6.382,10.609,5.769,114.894,66.085,125.667,71.946a15.106,15.106,0,0,0,8.147,1.249,21.573,21.573,0,0,0,8.825-2.628l5.283-3.075c2.337-1.361,3.576-2.97,3.7-4.458C2028.288,1529.633,2027.354,1528.287,2025.36,1527.376Z" transform="translate(-1746.073 -1121.727)" fill="#d2e3ff" fill-rule="evenodd" opacity="0.5" style="mix-blend-mode: multiply;isolation: isolate"/>
      <path id="Path_2988" data-name="Path 2988" d="M2412,1599.706l-64.6-37.006c-1.7-.776-4.128-1.393-5.857-.493-1.577.82-4.173,2.5-5.321,3.154-.872.5-3.9,2.311-2.014,3.336,5.545,3.015,60.057,34.544,65.688,37.607a7.9,7.9,0,0,0,4.259.653,11.264,11.264,0,0,0,4.612-1.374l2.762-1.607a3.363,3.363,0,0,0,1.933-2.33C2413.531,1600.885,2413.042,1600.181,2412,1599.706Z" transform="translate(-2058.36 -1194.634)" fill="#d2e3ff" fill-rule="evenodd" opacity="0.5" style="mix-blend-mode: multiply;isolation: isolate"/>
      <g id="Group_1115" data-name="Group 1115" transform="translate(0)">
        <g id="Group_1098" data-name="Group 1098" transform="translate(271.971 201.187)">
          <g id="Group_1097" data-name="Group 1097">
            <path id="Path_2989" data-name="Path 2989" d="M2351.758,1045.232c.234-1.439-1.96-1.535-1.219-2.3a22.827,22.827,0,0,1,4.4-2.06,4.652,4.652,0,0,1,3.895.814c21.76,13.778,53.74,34.106,75.5,47.886,3.235,2.153,5.32,7.243,4.653,11.356-7.306,46.087-11.034,75.428-18.344,121.541a5.225,5.225,0,0,1-2.7,4.178c-1.254.566-4.389,2.537-5.948,1.5-21.733-13.762-52.094-36.208-73.829-49.971-3.231-2.151-5.308-7.225-4.641-11.328C2340.815,1120.853,2344.447,1091.345,2351.758,1045.232Z" transform="translate(-2330.19 -1040.721)" fill-rule="evenodd" fill="url(#linear-gradient-2)"/>
            <path id="Path_2990" data-name="Path 2990" d="M2341.679,1049.772c.668-4.112,3.835-5.706,7.073-3.55,21.761,13.779,53.74,34.106,75.5,47.886,3.235,2.154,5.32,7.243,4.653,11.356-7.306,46.087-11.034,75.427-18.344,121.541-.666,4.1-3.83,5.69-7.057,3.541-21.733-13.762-53.685-34.071-75.42-47.833-3.231-2.151-5.307-7.226-4.641-11.328C2330.737,1125.393,2334.368,1095.886,2341.679,1049.772Z" transform="translate(-2323.321 -1043.815)" fill="#fff" fill-rule="evenodd"/>
            <path id="Path_2991" data-name="Path 2991" d="M2353.045,1049.772c.668-4.113,3.834-5.706,7.073-3.55,21.76,13.779,53.74,34.106,75.5,47.886,3.235,2.154,5.32,7.243,4.653,11.356-5.344,33.706-8.774,58.456-13.09,87.36-28.072-17.8-60.7-38.526-87.185-55.314C2344.3,1108.492,2347.682,1083.6,2353.045,1049.772Z" transform="translate(-2334.687 -1043.815)" fill-rule="evenodd" fill="url(#linear-gradient-3)"/>
            <path id="Path_2992" data-name="Path 2992" d="M2385.623,1081.205c.512-3.152,2.939-4.374,5.422-2.721l25.466,16.125a9.46,9.46,0,0,1,3.566,8.7l-3.742,23.612c-.512,3.152-2.943,4.372-5.423,2.721l-25.465-16.124a9.455,9.455,0,0,1-3.567-8.7Z" transform="translate(-2363.165 -1065.956)" fill="#00cedc" fill-rule="evenodd" opacity="0.2"/>
            <path id="Path_2993" data-name="Path 2993" d="M2365.727,1216.638c.512-3.152,2.939-4.374,5.422-2.721l25.466,16.124a9.461,9.461,0,0,1,3.567,8.7l-3.743,23.612c-.512,3.152-2.942,4.372-5.422,2.721l-25.465-16.124a9.455,9.455,0,0,1-3.566-8.7Z" transform="translate(-2349.606 -1158.256)" fill="#00cedc" fill-rule="evenodd" opacity="0.2"/>
            <path id="Path_2994" data-name="Path 2994" d="M2513.415,1165.509c.511-3.152,2.939-4.373,5.421-2.721l25.466,16.125a9.46,9.46,0,0,1,3.566,8.7l-3.743,23.612c-.512,3.152-2.942,4.371-5.422,2.72l-25.465-16.124a9.454,9.454,0,0,1-3.567-8.7Z" transform="translate(-2450.257 -1123.41)" fill="#00cedc" fill-rule="evenodd" opacity="0.2"/>
            <path id="Path_2995" data-name="Path 2995" d="M2493.52,1300.941c.512-3.152,2.939-4.374,5.421-2.721l25.466,16.124a9.462,9.462,0,0,1,3.566,8.7l-3.743,23.612c-.512,3.152-2.943,4.372-5.422,2.721l-25.465-16.124a9.457,9.457,0,0,1-3.567-8.7Z" transform="translate(-2436.698 -1215.71)" fill="#00cedc" fill-rule="evenodd" opacity="0.2"/>
            <g id="Group_1096" data-name="Group 1096" transform="translate(5.332 106.308)">
              <path id="Path_2996" data-name="Path 2996" d="M2346.039,1375.218c.1-.645.6-.887,1.114-.539l73.207,46.683a1.978,1.978,0,0,1,.733,1.8l-.769,4.836c-.105.646-.6.886-1.113.538L2346,1381.855a1.978,1.978,0,0,1-.732-1.8Z" transform="translate(-2343.599 -1374.52)" fill="#272dd2" fill-rule="evenodd" opacity="0.2"/>
              <path id="Path_2997" data-name="Path 2997" d="M2340.851,1420.7c.1-.645.6-.887,1.114-.539l73.207,46.683a1.978,1.978,0,0,1,.733,1.8l-.769,4.836c-.106.646-.6.887-1.114.538l-73.207-46.683a1.98,1.98,0,0,1-.733-1.8Z" transform="translate(-2340.063 -1405.516)" fill="#272dd2" fill-rule="evenodd" opacity="0.2"/>
            </g>
            <path id="Path_2998" data-name="Path 2998" d="M2550.7,1199.231c.448,1.559,1.094,3.55,1.788,5.736s1.434,4.577,2.067,6.933a23.151,23.151,0,0,0,.98-3.177c.2,2.136.555,5.144.7,8.067s.077,5.784-.573,7.589a6.474,6.474,0,0,1-3.343,4.075,6.309,6.309,0,0,1-5.2-.149c2.063.454,3.942-1.385,4.341-3.557a8.475,8.475,0,0,0-.64-5.253,8.9,8.9,0,0,0-3.111-4.083,3.8,3.8,0,0,0-3.773-.532c-1.084.508-1.822,1.167-2.227,3.337a11.163,11.163,0,0,0,2.212,7.946,17.175,17.175,0,0,1-4.107-6.086,15.039,15.039,0,0,1,.79-13.758c1.075-2.106,2.345-4.026,3.2-5.449a30.754,30.754,0,0,0-.281,3.641c1.267-1.084,2.631-2.064,3.892-2.942S2549.839,1199.91,2550.7,1199.231Z" transform="translate(-2469.986 -1148.749)" fill="#00cedc" fill-rule="evenodd" opacity="0.5"/>
            <path id="Path_2999" data-name="Path 2999" d="M2526.384,1362.376q-.073.582-.6.258a.9.9,0,0,1-.482-.927l1.657-13.216c.049-.389.257-.47.627-.24a.874.874,0,0,1,.45.909l-1.657,13.215Zm-12.537-19.713a11.788,11.788,0,0,0-.216-5,6.6,6.6,0,0,0-3.022-3.36,5.391,5.391,0,0,0-2.447-.951h-.172q-1.477.06-1.756,2.278l-.424,3.383,3.1,1.925.417-3.327c.068-.542.342-.661.821-.363q.7.432.532,1.733a7.38,7.38,0,0,1-1.126,3.524l-4.98,6.392-.323,2.581,7.881,4.9.313-2.5-4.221-2.622,5.032-6.769a3.868,3.868,0,0,0,.594-1.82Zm6.14,7.425a5.467,5.467,0,0,1,1.386,4.741l-.361,2.884q-.507,4.047-4.4,1.626-3.946-2.451-3.483-6.134l.581-4.632,3.167,1.968-.576,4.6a1.059,1.059,0,0,0,.538,1.108q.627.389.718-.327l.562-4.484a1.925,1.925,0,0,0-.182-1.24,3.333,3.333,0,0,0-1.133-1l.275-2.192q1.479.919,1.623-.219l.432-3.443a.975.975,0,0,0-.555-.972c-.435-.271-.676-.21-.724.177l-.448,3.572-3.054-1.9.451-3.6q.431-3.436,4.29-1.042a8.583,8.583,0,0,1,2.59,2.5,4.7,4.7,0,0,1,.823,3.329l-.335,2.668q-.293,2.334-2.186,2.015Zm7.961-4.488q-4.035-2.506-4.508,1.27l-1.567,12.5a4.9,4.9,0,0,0,.781,3.273,8.486,8.486,0,0,0,2.794,2.714,4.354,4.354,0,0,0,2.982.86q1.232-.229,1.441-1.908l1.566-12.5Q2531.907,1348.06,2527.947,1345.6Z" transform="translate(-2446.626 -1240.153)" fill="#00cedc" fill-rule="evenodd" opacity="0.5"/>
            <path id="Path_3000" data-name="Path 3000" d="M2403.944,1105.106a12.555,12.555,0,0,1,4.3,4l-1.885,15.526-.337-5.16-1.208-.693v-7.053l-1.627,7.114-.421-2.16-.552.389-.742-4.313-.519,7.147-.36-3.441-3.444-1.823a16.8,16.8,0,0,1-.954-5.688c.109-4.957,4.007-5.872,7.744-3.842Zm4.582,4.424a14.537,14.537,0,0,1,1.729,4.006c1.29-2.762,3.969-2.847,6.63-1.4a12.016,12.016,0,0,1,1.846,1.251l-2.256,20.547-.2.1-.427-13.122-1.626,3.193-1.421-.849-.1-9.547-1.974,12.7-.289-4.29-1.719-1.163-.188-11.421Zm10.543,4.141c2.866,2.487,5.216,6.512,5.048,10.444a9.08,9.08,0,0,1-1.563,4.913l-3.617-2.156.132-13.2Zm3.171,15.8-4-2.207.176-6.387-1.335,12.75a14.834,14.834,0,0,0,5.158-4.156Zm-6.609,4.851-.376-10.738-.755,1.483-2.391-1.429.039-2.742-1.531,9.172-.846-7.573-1.736-1.174-.07-4.192L2406.2,1131.7a22.946,22.946,0,0,0,3.207,4.3,1.04,1.04,0,0,1,.106.06l.131.067c.6.3,3.551-.754,5.7-1.671l.286-.123Zm-9.5-2.731-.766-11.712-1.234-.709v-1.362l-.993,4.341-.838-4.3-.53.373-.41,5.649q1.17,2.08,2.648,4.415c.669,1.055,1.408,2.214,2.124,3.306Zm-5.607-9.247-.572-5.474-2.548-1.484A49.555,49.555,0,0,0,2400.523,1122.346Z" transform="translate(-2372.983 -1083.914)" fill="#00cedc" fill-rule="evenodd" opacity="0.5"/>
            <path id="Path_3001" data-name="Path 3001" d="M2401.3,1278.15c-.048.385-.248.459-.6.224a.957.957,0,0,1-.481-.956l1.656-13.119c.05-.386.258-.455.628-.2a.928.928,0,0,1,.45.935l-1.657,13.119Zm-6.99-11.971q1.893.426,2.186-1.888l.335-2.65a4.885,4.885,0,0,0-.822-3.376,9.366,9.366,0,0,0-2.59-2.653q-3.857-2.62-4.29.792l-.451,3.577,3.053,2.075.448-3.546c.049-.384.289-.431.725-.135a1.04,1.04,0,0,1,.555,1l-.432,3.418q-.144,1.131-1.623.125l-.275,2.176a3.622,3.622,0,0,1,1.132,1.07,1.975,1.975,0,0,1,.183,1.251l-.562,4.452c-.059.473-.3.569-.717.286a1.123,1.123,0,0,1-.538-1.139l.576-4.566-3.167-2.152-.58,4.6q-.462,3.658,3.483,6.336,3.889,2.643,4.4-1.37l.362-2.863a5.714,5.714,0,0,0-1.387-4.822Zm-10.33-14.949a1.691,1.691,0,0,0,.708-1.2l2.985,2.028-2.436,19.293-3.458-2.349,1.785-14.138-1.3-.885.355-2.811a1.1,1.1,0,0,0,1.363.062Zm18.883,10.234q-4.035-2.74-4.508,1.008l-1.567,12.407a5.09,5.09,0,0,0,.781,3.318,9.245,9.245,0,0,0,2.793,2.876,4.554,4.554,0,0,0,2.982,1.033q1.233-.157,1.441-1.824l1.566-12.407Q2406.819,1264.155,2402.86,1261.464Z" transform="translate(-2363.16 -1183.371)" fill="#00cedc" fill-rule="evenodd" opacity="0.5"/>
          </g>
          <path id="Path_3002" data-name="Path 3002" d="M2341.679,1047.512c.668-4.113,7.385-6.988,10.624-4.832,5.377,3.4,11.379,7.209,17.7,11.217l-3.491,1.319c-7.43,48.889-13.088,89.54-20.164,136.808-6.523-4.138-12.721-8.068-18.257-11.572-3.231-2.151-5.307-7.226-4.641-11.328C2330.737,1123.132,2334.368,1093.625,2341.679,1047.512Z" transform="translate(-2323.321 -1041.554)" fill-rule="evenodd" opacity="0.5" fill="url(#linear-gradient-4)" style="mix-blend-mode: multiply;isolation: isolate"/>
        </g>
        <g id="Group_1103" data-name="Group 1103">
          <path id="Path_3003" data-name="Path 3003" d="M1629.06,612.112l3.836-1.458c3.13-1.232,4.774-4.493,5.233-7.661l17.546-121.7a.2.2,0,0,0,0-.031,19.634,19.634,0,0,0-3.276-13.3,15.475,15.475,0,0,0-5.378-5.187l-94.673-52.5a8.367,8.367,0,0,0-7.117-.795l-3.881,1.482C1541.362,410.982,1596.305,525.834,1629.06,612.112Z" transform="translate(-1518.423 -409.011)" fill-rule="evenodd" fill="url(#linear-gradient-5)"/>
          <path id="Path_3004" data-name="Path 3004" d="M1594.089,467.369l-94.67-52.5c-5.8-3.216-11.329-.129-12.354,6.872l-17.546,121.7c-1.025,7,2.833,15.291,8.636,18.506l94.672,52.5c5.8,3.217,11.342.135,12.367-6.863l17.545-121.7C1603.766,478.884,1599.892,470.586,1594.089,467.369Z" transform="translate(-1469.354 -412.136)" fill="#fff" fill-rule="evenodd"/>
          <path id="Path_3005" data-name="Path 3005" d="M1604.3,467.37l-94.67-52.5c-5.8-3.216-11.329-.129-12.354,6.872l-12.938,89.745,115.674,64.147,12.939-89.752C1613.978,478.883,1610.1,470.586,1604.3,467.37Z" transform="translate(-1479.566 -412.136)" fill-rule="evenodd" fill="url(#linear-gradient-6)"/>
          <g id="Group_1099" data-name="Group 1099" transform="translate(7.588 110.918)">
            <path id="Path_3006" data-name="Path 3006" d="M1501.788,759.954c.307-2.319,2.057-3.317,3.909-2.225l42.01,23.36a6.669,6.669,0,0,1,2.795,6.181l-.6,4.588c-.308,2.319-2.06,3.316-3.91,2.225l-42.009-23.361a6.66,6.66,0,0,1-2.795-6.18Z" transform="translate(-1498.607 -757.286)" fill="#c5cfff" fill-rule="evenodd" opacity="0.25"/>
            <path id="Path_3007" data-name="Path 3007" d="M1493.747,823.814c.27-2.043,1.812-2.922,3.443-1.96,23.818,13.244,62.863,34.857,86.68,48.1a5.875,5.875,0,0,1,2.463,5.446l-.526,4.042c-.271,2.043-1.815,2.922-3.444,1.96-23.818-13.244-62.863-34.857-86.68-48.1a5.867,5.867,0,0,1-2.463-5.444Z" transform="translate(-1493.179 -801.024)" fill="#c5cfff" fill-rule="evenodd" opacity="0.25"/>
          </g>
          <g id="Group_1102" data-name="Group 1102" transform="translate(20.604 58.082)">
            <g id="Group_1100" data-name="Group 1100" transform="translate(82.205)">
              <path id="Path_3008" data-name="Path 3008" d="M1800.084,591.5c4.14.793,7.313,5.6,7.088,10.746s-3.766,8.668-7.906,7.875-7.314-5.6-7.088-10.746S1795.943,590.7,1800.084,591.5Z" transform="translate(-1792.166 -591.385)" fill="#fff" fill-rule="evenodd" opacity="0.5"/>
              <path id="Path_3009" data-name="Path 3009" d="M1807.805,606.031c2.1.4,3.707,2.841,3.593,5.447s-1.908,4.393-4.007,3.991-3.707-2.841-3.593-5.447S1805.707,605.629,1807.805,606.031Z" transform="translate(-1800.09 -601.328)" fill="#fff" fill-rule="evenodd"/>
            </g>
            <path id="Path_3010" data-name="Path 3010" d="M1544.056,628.3c-1.047-5.3-4.08-15.856-3.832-21.512.252-5.76,4.217-9.708,8.855-8.82s8.192,6.277,7.939,12.036c-.27,6.156-8.425,13.161-12.962,18.3Zm4.434-26.334c-2.793-.535-5.18,1.843-5.332,5.31s1.988,6.713,4.78,7.248,5.18-1.843,5.332-5.31S1551.281,602.505,1548.49,601.97Z" transform="translate(-1538.248 -595.789)" fill="#fff" fill-rule="evenodd"/>
            <path id="Path_3011" data-name="Path 3011" d="M1546.351,655.473c-.8.941.415,2.027,1.329.947.831-1.039,1.667-2.068,2.515-3.1.834-.985-.424-2.019-1.3-.984q-1.286,1.559-2.544,3.133Zm83.441-23.65c.278-1.277-1.519-1.212-1.767-.073a34.075,34.075,0,0,1-1.061,3.547c-.434,1.111,1.212,1.54,1.706.275a36.956,36.956,0,0,0,1.122-3.749Zm-3.561,9.246c.579-1.14-.871-1.747-1.562-.595a31.113,31.113,0,0,1-2.011,3.252c-.771,1.118.687,1.889,1.41.841a34.028,34.028,0,0,0,2.164-3.5Zm-6.315,8.222c1.048-1.013-.175-2.088-1.034-1.259a17.975,17.975,0,0,1-3.013,2.2c-1.1.605-.546,2.2.628,1.55a20.438,20.438,0,0,0,3.419-2.495Zm-9.238,4.393c1.212-.1,1.423-1.924.253-1.827a9.932,9.932,0,0,1-3.22-.249c-1.135-.227-1.844,1.466-.785,1.784a11.65,11.65,0,0,0,3.752.293Zm-8.458-2.522c.8.625,2.15-.864,1.258-1.562a17.667,17.667,0,0,1-2.361-2.057c-.72-.769-2.181.612-1.436,1.407a19.487,19.487,0,0,0,2.539,2.212Zm-5.66-6.124c.625.913,2.179-.353,1.585-1.22-.6-.9-1.148-1.813-1.674-2.76-.542-.967-2.164.193-1.644,1.12.536.98,1.118,1.936,1.732,2.859Zm-3.937-7.353c.483.988,2.151-.087,1.674-1.062a19.07,19.07,0,0,0-1.687-2.953c-.6-.875-2.182.346-1.564,1.251.535.953,1.085,1.739,1.577,2.765Zm-4.774-6.111c.894.579,2.1-.9,1.236-1.578a11.506,11.506,0,0,0-3.139-1.569c-1.08-.323-1.9,1.45-.849,1.765a9.925,9.925,0,0,1,2.753,1.382Zm-7.618-1.738c1.288-.222,1.258-2.008.142-1.817a19.418,19.418,0,0,0-3.842.954c-1.163.4-.947,2.135.269,1.715a17.346,17.346,0,0,1,3.431-.853Zm-8.494,3.291c1.1-.7.484-2.161-.67-1.526-1.161.687-2.3,1.454-3.4,2.248-1.069.842-.213,2.146.847,1.41,1.032-.752,2.139-1.489,3.225-2.133Zm-7.831,5.81c.964-.932.03-2.1-1.02-1.27-1.031.9-2.01,1.815-3.009,2.749-.96.927.16,2.107,1.107,1.192s1.936-1.812,2.922-2.67Zm-7.123,6.909c.858-.924-.187-2.077-1.2-1.1-.927.985-1.835,1.981-2.737,2.989-.906,1.07.437,2,1.241,1.052C1554.975,647.793,1555.869,646.814,1556.782,645.845Z" transform="translate(-1542.257 -616.342)" fill="#fff" fill-rule="evenodd"/>
            <g id="Group_1101" data-name="Group 1101" transform="translate(0 35.67)">
              <path id="Path_3012" data-name="Path 3012" d="M1537.919,703.44c2.024.387,3.575,2.74,3.465,5.253s-1.84,4.237-3.864,3.849-3.575-2.74-3.464-5.253S1535.9,703.052,1537.919,703.44Z" transform="translate(-1534.05 -703.386)" fill="#fff" fill-rule="evenodd" opacity="0.5"/>
              <path id="Path_3013" data-name="Path 3013" d="M1541.693,710.545a2.538,2.538,0,0,1,1.756,2.663c-.056,1.274-.933,2.147-1.958,1.951a2.538,2.538,0,0,1-1.756-2.662C1539.791,711.222,1540.668,710.348,1541.693,710.545Z" transform="translate(-1537.922 -708.246)" fill="#fff" fill-rule="evenodd"/>
            </g>
          </g>
        </g>
        <g id="Group_1108" data-name="Group 1108" transform="translate(134.736 42.765)">
          <path id="Path_3014" data-name="Path 3014" d="M2169.095,629.4l-45.5,282.538,7.391-2.885c3.131-1.233,4.774-4.493,5.233-7.662l40.27-274.878a.236.236,0,0,0,0-.031,19.635,19.635,0,0,0-3.276-13.3,15.471,15.471,0,0,0-5.379-5.187l-114.452-63.441a8.364,8.364,0,0,0-7.118-.795l-7.392,2.888C2040.111,546.167,2170.074,622.724,2169.095,629.4Z" transform="translate(-1992.23 -543.29)" fill-rule="evenodd" fill="url(#linear-gradient-7)"/>
          <g id="Group_1104" data-name="Group 1104" transform="translate(0 2.881)">
            <path id="Path_3015" data-name="Path 3015" d="M2062.719,617.05,1948.27,553.609c-5.8-3.216-11.329-.128-12.354,6.872l-40.27,274.878c-1.025,7,2.833,15.291,8.635,18.506l114.451,63.441c5.8,3.216,11.342.135,12.367-6.863l40.269-274.88C2072.4,628.564,2068.522,620.266,2062.719,617.05Z" transform="translate(-1894.505 -552.336)" fill="#151981" fill-rule="evenodd"/>
            <path id="Path_3016" data-name="Path 3016" d="M2062.544,617.32l-114.387-63.407c-5.8-3.214-11.323-.128-12.347,6.868l-40.248,274.73c-1.024,7,2.831,15.282,8.631,18.5l114.389,63.406c5.8,3.215,11.336.135,12.36-6.859l40.247-274.732C2072.215,628.828,2068.343,620.535,2062.544,617.32Z" transform="translate(-1894.446 -552.544)" fill-rule="evenodd" fill="url(#linear-gradient-8)"/>
            <path id="Path_3017" data-name="Path 3017" d="M2062.368,617.591l-114.325-63.372c-5.8-3.212-11.317-.129-12.341,6.864l-40.226,274.581c-1.024,6.993,2.83,15.274,8.626,18.486l114.327,63.372c5.8,3.213,11.329.135,12.354-6.856l40.226-274.583C2072.035,629.093,2068.165,620.8,2062.368,617.591Z" transform="translate(-1894.389 -552.752)" fill-rule="evenodd" fill="url(#linear-gradient-9)"/>
            <path id="Path_3018" data-name="Path 3018" d="M2062.193,617.861l-114.263-63.338c-5.793-3.211-11.31-.128-12.334,6.86l-40.2,274.433c-1.023,6.989,2.828,15.266,8.622,18.476l114.265,63.338c5.794,3.211,11.324.135,12.347-6.852l40.2-274.435C2071.854,629.357,2067.986,621.072,2062.193,617.861Z" transform="translate(-1894.33 -552.96)" fill-rule="evenodd" fill="url(#linear-gradient-10)"/>
            <path id="Path_3019" data-name="Path 3019" d="M2062.017,618.132l-114.2-63.3c-5.791-3.209-11.3-.128-12.328,6.857L1895.306,835.97c-1.023,6.985,2.826,15.257,8.617,18.466l114.2,63.3c5.791,3.209,11.317.135,12.34-6.848L2070.648,636.6C2071.673,629.621,2067.807,621.341,2062.017,618.132Z" transform="translate(-1894.272 -553.168)" fill-rule="evenodd" fill="url(#linear-gradient-11)"/>
            <path id="Path_3020" data-name="Path 3020" d="M2061.841,618.4l-114.14-63.27c-5.787-3.207-11.3-.128-12.321,6.853L1895.22,836.122c-1.022,6.982,2.825,15.249,8.612,18.456l114.142,63.27c5.787,3.207,11.311.135,12.333-6.845l40.161-274.138C2071.492,629.885,2067.629,621.609,2061.841,618.4Z" transform="translate(-1894.214 -553.376)" fill-rule="evenodd" fill="url(#linear-gradient-12)"/>
            <path id="Path_3021" data-name="Path 3021" d="M2061.666,618.672l-114.078-63.235c-5.784-3.205-11.292-.128-12.314,6.85l-40.139,273.988c-1.022,6.978,2.824,15.241,8.607,18.446l114.08,63.235c5.784,3.206,11.305.135,12.327-6.841l40.139-273.99C2071.312,630.149,2067.45,621.878,2061.666,618.672Z" transform="translate(-1894.156 -553.584)" fill-rule="evenodd" fill="url(#linear-gradient-13)"/>
            <path id="Path_3022" data-name="Path 3022" d="M2061.491,618.943l-114.016-63.2c-5.781-3.2-11.287-.128-12.308,6.846l-40.118,273.84c-1.021,6.974,2.822,15.233,8.6,18.436l114.018,63.2c5.781,3.2,11.3.135,12.321-6.837l40.117-273.842C2071.131,630.413,2067.271,622.147,2061.491,618.943Z" transform="translate(-1894.098 -553.792)" fill-rule="evenodd" fill="url(#linear-gradient-14)"/>
            <path id="Path_3023" data-name="Path 3023" d="M2061.315,619.213l-113.954-63.167c-5.778-3.2-11.28-.128-12.3,6.842l-40.1,273.691c-1.021,6.97,2.821,15.225,8.6,18.426l113.956,63.167c5.778,3.2,11.293.135,12.314-6.833l40.1-273.694C2070.95,630.677,2067.093,622.415,2061.315,619.213Z" transform="translate(-1894.04 -554)" fill-rule="evenodd" fill="url(#linear-gradient-15)"/>
            <path id="Path_3024" data-name="Path 3024" d="M2061.14,619.483l-113.893-63.132c-5.775-3.2-11.274-.128-12.294,6.838l-40.074,273.543c-1.02,6.966,2.819,15.216,8.594,18.416l113.895,63.133c5.775,3.2,11.287.135,12.307-6.83l40.074-273.545C2070.77,630.942,2066.914,622.684,2061.14,619.483Z" transform="translate(-1893.982 -554.209)" fill-rule="evenodd" fill="url(#linear-gradient-16)"/>
            <path id="Path_3025" data-name="Path 3025" d="M2060.964,619.754l-113.831-63.1c-5.772-3.2-11.268-.128-12.288,6.834l-40.052,273.395c-1.02,6.963,2.817,15.208,8.589,18.406l113.833,63.1c5.772,3.2,11.281.135,12.3-6.826l40.052-273.4C2070.589,631.206,2066.736,622.953,2060.964,619.754Z" transform="translate(-1893.924 -554.416)" fill-rule="evenodd" fill="url(#linear-gradient-17)"/>
            <path id="Path_3026" data-name="Path 3026" d="M2060.789,620.024,1947.02,556.96c-5.769-3.2-11.262-.128-12.281,6.831l-40.031,273.246c-1.019,6.959,2.816,15.2,8.584,18.4L2017.063,918.5c5.769,3.2,11.274.134,12.294-6.823l40.03-273.248C2070.408,631.47,2066.557,623.221,2060.789,620.024Z" transform="translate(-1893.866 -554.624)" fill-rule="evenodd" fill="url(#linear-gradient-18)"/>
            <path id="Path_3027" data-name="Path 3027" d="M2060.614,620.295l-113.708-63.03c-5.765-3.195-11.255-.128-12.274,6.827l-40.009,273.1c-1.019,6.955,2.814,15.192,8.579,18.386l113.709,63.03c5.766,3.2,11.268.135,12.287-6.819l40.009-273.1C2070.228,631.734,2066.379,623.49,2060.614,620.295Z" transform="translate(-1893.808 -554.833)" fill-rule="evenodd" fill="url(#linear-gradient-19)"/>
            <path id="Path_3028" data-name="Path 3028" d="M2060.438,620.565l-113.645-63c-5.763-3.193-11.25-.128-12.268,6.823l-39.987,272.95c-1.018,6.951,2.813,15.183,8.575,18.376l113.647,63c5.763,3.194,11.262.135,12.28-6.815l39.987-272.951C2070.047,632,2066.2,623.758,2060.438,620.565Z" transform="translate(-1893.749 -555.041)" fill-rule="evenodd" fill="url(#linear-gradient-20)"/>
            <path id="Path_3029" data-name="Path 3029" d="M2060.262,620.835l-113.584-62.961c-5.76-3.191-11.243-.128-12.261,6.82l-39.965,272.8c-1.018,6.948,2.811,15.175,8.57,18.366l113.586,62.961c5.76,3.192,11.256.134,12.274-6.811l39.965-272.8C2069.866,632.262,2066.021,624.027,2060.262,620.835Z" transform="translate(-1893.691 -555.249)" fill-rule="evenodd" fill="url(#linear-gradient-21)"/>
            <path id="Path_3030" data-name="Path 3030" d="M2060.087,621.105l-113.522-62.927c-5.756-3.19-11.237-.127-12.254,6.816l-39.944,272.653c-1.017,6.944,2.81,15.167,8.566,18.356l113.524,62.927c5.756,3.19,11.25.134,12.267-6.807l39.943-272.655C2069.685,632.526,2065.842,624.3,2060.087,621.105Z" transform="translate(-1893.633 -555.457)" fill-rule="evenodd" fill="url(#linear-gradient-22)"/>
            <path id="Path_3031" data-name="Path 3031" d="M2059.911,621.376l-113.46-62.893c-5.753-3.188-11.231-.128-12.248,6.812l-39.922,272.5c-1.016,6.94,2.808,15.158,8.561,18.346l113.462,62.893c5.753,3.188,11.244.134,12.26-6.8l39.922-272.507C2069.5,632.791,2065.664,624.564,2059.911,621.376Z" transform="translate(-1893.575 -555.665)" fill-rule="evenodd" fill="url(#linear-gradient-23)"/>
            <path id="Path_3032" data-name="Path 3032" d="M2059.736,621.646l-113.4-62.859c-5.75-3.187-11.225-.128-12.241,6.808l-39.9,272.356c-1.016,6.937,2.807,15.15,8.556,18.337l113.4,62.859c5.75,3.187,11.238.134,12.253-6.8l39.9-272.358C2069.324,633.055,2065.485,624.833,2059.736,621.646Z" transform="translate(-1893.517 -555.873)" fill-rule="evenodd" fill="url(#linear-gradient-24)"/>
            <path id="Path_3033" data-name="Path 3033" d="M2059.561,621.917l-113.337-62.825c-5.747-3.185-11.219-.127-12.234,6.8l-39.878,272.208c-1.015,6.933,2.805,15.142,8.551,18.326L2016,919.256c5.747,3.185,11.231.134,12.247-6.8l39.878-272.21C2069.143,633.319,2065.307,625.1,2059.561,621.917Z" transform="translate(-1893.459 -556.081)" fill-rule="evenodd" fill="url(#linear-gradient-25)"/>
            <path id="Path_3034" data-name="Path 3034" d="M2059.385,622.187,1946.109,559.4c-5.744-3.183-11.213-.127-12.228,6.8l-39.857,272.06c-1.014,6.929,2.8,15.133,8.547,18.316l113.277,62.79c5.743,3.183,11.225.134,12.24-6.793l39.857-272.061C2068.962,633.583,2065.128,625.37,2059.385,622.187Z" transform="translate(-1893.401 -556.289)" fill-rule="evenodd" fill="url(#linear-gradient-26)"/>
            <path id="Path_3035" data-name="Path 3035" d="M2059.209,622.457,1946,559.7c-5.74-3.181-11.207-.127-12.221,6.8L1893.94,838.41c-1.014,6.925,2.8,15.126,8.542,18.307L2015.7,919.472c5.74,3.182,11.219.134,12.233-6.789l39.834-271.913C2068.782,633.847,2064.949,625.639,2059.209,622.457Z" transform="translate(-1893.343 -556.497)" fill-rule="evenodd" fill="url(#linear-gradient-27)"/>
            <path id="Path_3036" data-name="Path 3036" d="M2059.034,622.728l-113.152-62.722c-5.737-3.179-11.2-.127-12.214,6.794l-39.813,271.763c-1.014,6.921,2.8,15.117,8.538,18.3l113.153,62.722c5.738,3.18,11.213.134,12.227-6.785l39.813-271.765C2068.6,634.112,2064.77,625.908,2059.034,622.728Z" transform="translate(-1893.285 -556.705)" fill-rule="evenodd" fill="url(#linear-gradient-28)"/>
            <path id="Path_3037" data-name="Path 3037" d="M2058.858,623l-113.09-62.687c-5.734-3.178-11.194-.127-12.207,6.79L1893.77,838.715c-1.013,6.917,2.8,15.109,8.532,18.286l113.092,62.687c5.734,3.178,11.207.134,12.22-6.781l39.791-271.617C2068.42,634.376,2064.592,626.176,2058.858,623Z" transform="translate(-1893.227 -556.913)" fill-rule="evenodd" fill="url(#linear-gradient-29)"/>
            <path id="Path_3038" data-name="Path 3038" d="M2058.682,623.269l-113.027-62.653c-5.731-3.176-11.188-.127-12.2,6.786l-39.77,271.466c-1.012,6.914,2.8,15.1,8.528,18.276l113.03,62.653c5.731,3.176,11.2.134,12.213-6.778l39.769-271.468C2068.239,634.64,2064.413,626.445,2058.682,623.269Z" transform="translate(-1893.169 -557.121)" fill-rule="evenodd" fill="url(#linear-gradient-30)"/>
            <path id="Path_3039" data-name="Path 3039" d="M2058.508,623.539,1945.541,560.92c-5.728-3.174-11.182-.127-12.194,6.783L1893.6,839.021c-1.012,6.91,2.8,15.092,8.523,18.266l112.968,62.619c5.728,3.175,11.195.134,12.207-6.774l39.748-271.32C2068.059,634.9,2064.235,626.714,2058.508,623.539Z" transform="translate(-1893.111 -557.33)" fill-rule="evenodd" fill="url(#linear-gradient-31)"/>
            <path id="Path_3040" data-name="Path 3040" d="M2058.332,623.809l-112.9-62.585c-5.725-3.173-11.176-.127-12.187,6.779l-39.726,271.17c-1.011,6.906,2.794,15.084,8.519,18.256l112.906,62.585c5.725,3.173,11.189.134,12.2-6.771l39.726-271.171C2067.878,635.168,2064.056,626.982,2058.332,623.809Z" transform="translate(-1893.052 -557.537)" fill-rule="evenodd" fill="url(#linear-gradient-32)"/>
            <path id="Path_3041" data-name="Path 3041" d="M2058.156,624.08l-112.842-62.551c-5.722-3.171-11.17-.127-12.181,6.775l-39.7,271.021c-1.011,6.9,2.793,15.076,8.514,18.247l112.844,62.551c5.722,3.171,11.183.133,12.193-6.767l39.7-271.023C2067.7,635.432,2063.878,627.251,2058.156,624.08Z" transform="translate(-1892.995 -557.746)" fill-rule="evenodd" fill="url(#linear-gradient-33)"/>
            <path id="Path_3042" data-name="Path 3042" d="M2057.981,624.35,1945.2,561.833c-5.719-3.169-11.164-.127-12.174,6.771l-39.683,270.873c-1.01,6.9,2.792,15.068,8.51,18.236l112.783,62.516c5.719,3.169,11.177.133,12.187-6.763L2066.5,642.593C2067.516,635.7,2063.7,627.519,2057.981,624.35Z" transform="translate(-1892.936 -557.953)" fill-rule="evenodd" fill="url(#linear-gradient-34)"/>
            <path id="Path_3043" data-name="Path 3043" d="M2057.805,624.62l-112.719-62.482c-5.715-3.167-11.157-.127-12.167,6.768L1893.258,839.63c-1.01,6.895,2.79,15.059,8.5,18.227l112.721,62.482c5.715,3.168,11.17.133,12.179-6.759l39.661-270.726C2067.336,635.961,2063.521,627.788,2057.805,624.62Z" transform="translate(-1892.878 -558.162)" fill-rule="evenodd" fill="url(#linear-gradient-35)"/>
            <path id="Path_3044" data-name="Path 3044" d="M2057.63,624.891l-112.657-62.448c-5.713-3.166-11.152-.127-12.161,6.764l-39.64,270.576c-1.009,6.891,2.788,15.051,8.5,18.217l112.66,62.448c5.712,3.166,11.164.133,12.173-6.755l39.64-270.578C2067.155,636.225,2063.342,628.056,2057.63,624.891Z" transform="translate(-1892.82 -558.37)" fill-rule="evenodd" fill="url(#linear-gradient-36)"/>
            <path id="Path_3045" data-name="Path 3045" d="M2057.454,625.161l-112.6-62.413c-5.709-3.164-11.145-.127-12.154,6.76l-39.618,270.428c-1.009,6.887,2.787,15.043,8.5,18.207l112.6,62.414c5.709,3.164,11.158.133,12.166-6.752l39.617-270.429C2066.974,636.489,2063.163,628.325,2057.454,625.161Z" transform="translate(-1892.762 -558.578)" fill-rule="evenodd" fill="url(#linear-gradient-37)"/>
            <path id="Path_3046" data-name="Path 3046" d="M2057.279,625.432l-112.533-62.379c-5.706-3.162-11.139-.127-12.148,6.757L1893,840.088c-1.008,6.884,2.785,15.034,8.491,18.2l112.536,62.379c5.706,3.162,11.152.133,12.159-6.749l39.6-270.281C2066.793,636.753,2062.984,628.594,2057.279,625.432Z" transform="translate(-1892.704 -558.786)" fill-rule="evenodd" fill="url(#linear-gradient-38)"/>
            <path id="Path_3047" data-name="Path 3047" d="M2057.1,625.7l-112.472-62.345c-5.7-3.161-11.133-.126-12.141,6.753L1892.917,840.24c-1.008,6.88,2.783,15.027,8.486,18.187l112.474,62.345c5.7,3.161,11.146.133,12.153-6.745L2065.6,643.895C2066.613,637.017,2062.806,628.862,2057.1,625.7Z" transform="translate(-1892.646 -558.994)" fill-rule="evenodd" fill="url(#linear-gradient-39)"/>
            <path id="Path_3048" data-name="Path 3048" d="M2056.927,625.972l-112.41-62.311c-5.7-3.159-11.127-.126-12.134,6.749l-39.552,269.983c-1.007,6.876,2.782,15.018,8.481,18.177l112.413,62.311c5.7,3.159,11.139.133,12.146-6.741l39.552-269.984C2066.432,637.281,2062.627,629.131,2056.927,625.972Z" transform="translate(-1892.588 -559.202)" fill-rule="evenodd" fill="url(#linear-gradient-40)"/>
            <path id="Path_3049" data-name="Path 3049" d="M2056.752,626.242,1944.4,563.966c-5.7-3.157-11.121-.126-12.127,6.745l-39.531,269.835c-1.007,6.872,2.78,15.01,8.477,18.167l112.35,62.276c5.7,3.157,11.134.133,12.14-6.737l39.531-269.836C2066.252,637.545,2062.449,629.4,2056.752,626.242Z" transform="translate(-1892.53 -559.41)" fill-rule="evenodd" fill="url(#linear-gradient-41)"/>
            <path id="Path_3050" data-name="Path 3050" d="M2056.577,626.513,1944.29,564.27c-5.694-3.155-11.115-.126-12.121,6.742L1892.66,840.7c-1.006,6.869,2.779,15,8.472,18.157L2013.421,921.1c5.694,3.155,11.127.133,12.133-6.734l39.509-269.688C2066.071,637.809,2062.27,629.668,2056.577,626.513Z" transform="translate(-1892.471 -559.618)" fill-rule="evenodd" fill="url(#linear-gradient-42)"/>
            <path id="Path_3051" data-name="Path 3051" d="M2056.4,626.783l-112.225-62.208c-5.691-3.154-11.109-.126-12.114,6.738l-39.487,269.538c-1.006,6.865,2.777,14.993,8.468,18.147l112.227,62.208c5.691,3.154,11.121.133,12.126-6.73l39.487-269.54C2065.89,638.073,2062.091,629.937,2056.4,626.783Z" transform="translate(-1892.413 -559.826)" fill-rule="evenodd" fill="url(#linear-gradient-43)"/>
          </g>
          <g id="Group_1107" data-name="Group 1107" transform="translate(9.969 21.411)">
            <g id="Group_1105" data-name="Group 1105" transform="translate(55.474 47.799)">
              <path id="Path_3052" data-name="Path 3052" d="M2156.451,806.243c-8.329-4.873-13.615-17.494-11.806-28.19s10.03-15.419,18.358-10.549,13.615,17.492,11.805,28.19-10.028,15.422-18.357,10.55Zm-.767,4.533c10.279,6.013,20.421.181,22.654-13.018s-4.289-28.774-14.568-34.787-20.421-.184-22.655,13.018S2145.405,804.763,2155.685,810.776Z" transform="translate(-2127.054 -760.603)" fill="#00cedc" fill-rule="evenodd"/>
              <path id="Path_3053" data-name="Path 3053" d="M2139.712,938.428c.209-1.234,1.156-1.766,2.115-1.185l21.789,12.415a3.423,3.423,0,0,1,1.358,3.288l-.407,2.441c-.208,1.234-1.156,1.766-2.115,1.185l-21.789-12.415a3.419,3.419,0,0,1-1.358-3.287Z" transform="translate(-2126.091 -880.826)" fill="#00cedc" fill-rule="evenodd"/>
              <path id="Path_3054" data-name="Path 3054" d="M2098.295,953.421c.184-1.087,1.018-1.556,1.863-1.045,12.353,7.039,32.607,18.525,44.96,25.563a3.015,3.015,0,0,1,1.2,2.9l-.358,2.151c-.184,1.087-1.02,1.556-1.863,1.045-12.353-7.039-32.606-18.525-44.959-25.564a3.012,3.012,0,0,1-1.2-2.9Z" transform="translate(-2097.9 -891.16)" fill="#00cedc" fill-rule="evenodd" opacity="0.5"/>
            </g>
            <path id="Path_3055" data-name="Path 3055" d="M2220.369,658.945,2133,610.518l69.112,249.074L2228.851,677.1C2229.857,670.236,2226.059,662.1,2220.369,658.945Z" transform="translate(-2066.35 -610.518)" fill="#e2eeff" fill-rule="evenodd" opacity="0.25"/>
            <path id="Path_3056" data-name="Path 3056" d="M2388.795,784.164c2.492,1.458,4.951.044,5.492-3.156s-1.04-6.976-3.532-8.434-4.951-.045-5.492,3.156S2386.3,782.706,2388.795,784.164Z" transform="translate(-2238.197 -720.571)" fill="#1f24ae" fill-rule="evenodd"/>
            <path id="Path_3057" data-name="Path 3057" d="M2172.018,658.392c.147-.872.816-1.247,1.493-.838,9.9,5.644,26.144,14.854,36.048,20.5a2.418,2.418,0,0,1,.959,2.323l-.288,1.725c-.147.872-.817,1.247-1.494.838-9.905-5.644-26.144-14.854-36.048-20.5a2.416,2.416,0,0,1-.96-2.322Z" transform="translate(-2092.723 -642.461)" fill="#1f24ae" fill-rule="evenodd"/>
            <g id="Group_1106" data-name="Group 1106" transform="translate(0 128.091)">
              <path id="Path_3058" data-name="Path 3058" d="M1943.891,1017.389c.634-4.009,3.7-5.785,6.842-3.957,33.344,19.223,66.5,39.2,99.842,58.421,3.141,1.827,5.178,6.565,4.544,10.574l-20.059,128.46c-.634,4.009-3.7,5.782-6.843,3.956-33.344-19.224-66.5-39.2-99.84-58.421-3.146-1.828-5.179-6.564-4.545-10.574Z" transform="translate(-1923.716 -1012.712)" fill="#00cedc" fill-rule="evenodd" opacity="0.2"/>
              <path id="Path_3059" data-name="Path 3059" d="M2096.222,1175.63a3.607,3.607,0,0,1,1.51-2.6,2.667,2.667,0,0,1,2.825.1l4.469,2.577a18.691,18.691,0,0,0,6.208,6.312,8.453,8.453,0,0,0,6.736,1.15l3.163,1.823a6.968,6.968,0,0,1,2.879,6.7l-2.354,14.992q-13.879-8.144-27.746-16.334l2.31-14.712Zm15.267,3.457c4.691,2.73,8.9.3,9.4-5.44s-2.9-12.6-7.591-15.33-8.9-.293-9.4,5.441S2106.8,1176.355,2111.489,1179.087Z" transform="translate(-2039.708 -1111.181)" fill="#00cedc" fill-rule="evenodd" opacity="0.5"/>
              <path id="Path_3060" data-name="Path 3060" d="M2054.186,1298.4c.121-.765.705-1.1,1.305-.755q21.922,12.637,43.834,25.278a2.1,2.1,0,0,1,.867,2.017l-1.141,7.565c-.121.765-.706,1.1-1.305.755q-21.922-12.638-43.834-25.279a2.1,2.1,0,0,1-.867-2.017Z" transform="translate(-2011.841 -1206.808)" fill="#00cedc" fill-rule="evenodd" opacity="0.2"/>
              <path id="Path_3061" data-name="Path 3061" d="M2016.181,1409.265c.263-1.661,1.532-2.4,2.836-1.64q25.738,14.838,51.495,29.649a4.557,4.557,0,0,1,1.883,4.382l-2.479,16.434c-.263,1.662-1.534,2.4-2.836,1.64q-25.738-14.839-51.495-29.649a4.555,4.555,0,0,1-1.884-4.382Z" transform="translate(-1985.01 -1281.65)" fill="#00cedc" fill-rule="evenodd" opacity="0.2"/>
              <path id="Path_3062" data-name="Path 3062" d="M1961.947,1313.135c.1-.662.61-.955,1.13-.653,12.652,7.293,84.43,47.641,97.082,54.935a1.815,1.815,0,0,1,.75,1.746l-.988,6.55c-.1.662-.611.954-1.13.653-12.652-7.294-84.431-47.64-97.082-54.935a1.815,1.815,0,0,1-.751-1.746Z" transform="translate(-1949.085 -1216.93)" fill="#00cedc" fill-rule="evenodd" opacity="0.2"/>
            </g>
          </g>
        </g>
        <g id="Group_1114" data-name="Group 1114" transform="translate(79.09 92.766)">
          <path id="Path_3063" data-name="Path 3063" d="M1767.494,717l-27.881-15.455a8.186,8.186,0,0,0-7.021-.787c-2.632,1.025-4.6,3.688-5.17,7.569l-9.567,67.824c-1.012,6.908,2.8,15.088,8.521,18.262L1753.05,809.2c1.594-.771,2.566-1.106,4.392-4.407Z" transform="translate(-1717.692 -700.29)" fill-rule="evenodd" opacity="0.5" fill="url(#linear-gradient-44)" style="mix-blend-mode: multiply;isolation: isolate"/>
          <g id="Group_1113" data-name="Group 1113" transform="translate(5.778 1.188)">
            <path id="Path_3064" data-name="Path 3064" d="M2010,838.183l-54.972-31.244-14.065,96.1,55.08,30.531c5.4,2.993,10.558.126,11.512-6.388l10.5-71.764C2019,848.9,2015.4,841.177,2010,838.183Z" transform="translate(-1875.631 -774.162)" fill-rule="evenodd" opacity="0.5" fill="url(#linear-gradient-45)" style="mix-blend-mode: multiply;isolation: isolate"/>
            <g id="Group_1112" data-name="Group 1112">
              <path id="Path_3065" data-name="Path 3065" d="M1894.4,784.173l-10.648,69.335.975.118,2.658-1.032c2.915-1.148,4.444-4.183,4.871-7.132l9.024-63.975a.158.158,0,0,0,0-.029,18.275,18.275,0,0,0-3.05-12.377,14.394,14.394,0,0,0-5.007-4.828L1786.691,705.2a7.786,7.786,0,0,0-6.626-.74l-2.344.915c-1.179.443-1.544.8-1.536.871C1777.291,716.556,1895.95,773.6,1894.4,784.173Z" transform="translate(-1763.335 -704.021)" fill="#c5cfff" fill-rule="evenodd"/>
              <path id="Path_3066" data-name="Path 3066" d="M1863.046,767.549,1756.513,708.5a7.721,7.721,0,0,0-6.623-.743c-2.483.967-4.341,3.479-4.876,7.139l-9.024,63.976c-.955,6.516,2.637,14.232,8.038,17.226l106.535,59.053c5.4,2.993,10.557.126,11.512-6.388l9.023-63.978C1872.053,778.267,1868.447,770.543,1863.046,767.549Z" transform="translate(-1735.835 -706.263)" fill="#fff" fill-rule="evenodd"/>
              <g id="Group_1109" data-name="Group 1109" transform="translate(10.156 44.605)">
                <path id="Path_3067" data-name="Path 3067" d="M1865.536,896.869l-94.621-52.507a1.845,1.845,0,0,0-1.584-.176,2.028,2.028,0,0,0-1.165,1.706l-.406,2.455a4.3,4.3,0,0,0,1.921,4.118L1864.3,904.97c1.291.715,2.524.03,2.752-1.527l.405-2.456A4.3,4.3,0,0,0,1865.536,896.869Z" transform="translate(-1767.723 -844.079)" fill="#9eafff" fill-rule="evenodd" opacity="0.2"/>
                <path id="Path_3068" data-name="Path 3068" d="M1828.718,876.2l-57.8-31.834a1.844,1.844,0,0,0-1.583-.176,2.026,2.026,0,0,0-1.166,1.707l-.406,2.455a4.3,4.3,0,0,0,1.921,4.118l57.8,31.833c1.292.715,2.524.03,2.752-1.527l.405-2.456A4.3,4.3,0,0,0,1828.718,876.2Z" transform="translate(-1767.723 -844.079)" fill="#9eafff" fill-rule="evenodd" opacity="0.5"/>
              </g>
              <path id="Path_3069" data-name="Path 3069" d="M1920.955,839.121q-.073.581-.6.258a.9.9,0,0,1-.481-.928l1.657-13.215q.073-.584.628-.24a.875.875,0,0,1,.45.91l-1.657,13.215Zm-21.217-24.579a11.8,11.8,0,0,0-.216-5,6.6,6.6,0,0,0-3.023-3.36,5.39,5.39,0,0,0-2.447-.951h-.172q-1.477.06-1.756,2.278l-.424,3.383,3.1,1.925.417-3.326c.068-.542.342-.661.821-.364q.7.432.532,1.733a7.375,7.375,0,0,1-1.127,3.524l-4.981,6.392-.323,2.581,7.881,4.9.313-2.5-4.221-2.623,5.032-6.77a3.866,3.866,0,0,0,.594-1.82Zm6.14,7.425a5.468,5.468,0,0,1,1.387,4.742l-.362,2.884q-.507,4.047-4.4,1.626-3.946-2.452-3.483-6.134l.581-4.632,3.167,1.968-.576,4.6a1.059,1.059,0,0,0,.539,1.108q.627.389.717-.328l.562-4.483a1.926,1.926,0,0,0-.182-1.24,3.333,3.333,0,0,0-1.132-1l.275-2.192q1.479.919,1.624-.219l.432-3.443a.975.975,0,0,0-.554-.972c-.436-.271-.676-.21-.725.177L1903.3,818l-3.053-1.9.451-3.6q.431-3.436,4.29-1.042a8.591,8.591,0,0,1,2.59,2.5,4.7,4.7,0,0,1,.822,3.329l-.335,2.669q-.293,2.334-2.186,2.015Zm1.718,7.5,2.852,1.772.355-2.832-2.852-1.773-.355,2.833Zm.715-5.7,2.853,1.773.355-2.832-2.853-1.773-.355,2.832Zm5.715-4.841a1.1,1.1,0,0,1-1.363.017l-.355,2.832,1.3.809-1.785,14.242,3.457,2.149,2.436-19.435-2.985-1.854a1.82,1.82,0,0,1-.708,1.24Zm8.493,3.416q-4.035-2.506-4.508,1.27l-1.567,12.5a4.9,4.9,0,0,0,.78,3.273,8.478,8.478,0,0,0,2.794,2.714,4.349,4.349,0,0,0,2.982.86q1.232-.229,1.441-1.908l1.566-12.5Q1926.478,824.806,1922.519,822.345Z" transform="translate(-1840.996 -772.996)" fill="#9eafff" fill-rule="evenodd"/>
              <g id="Group_1110" data-name="Group 1110" transform="translate(6.638 66.494)">
                <path id="Path_3070" data-name="Path 3070" d="M1852.78,964.94l-92.911-51.85a1.848,1.848,0,0,0-1.584-.177,2.028,2.028,0,0,0-1.165,1.707l-.406,2.455a4.3,4.3,0,0,0,1.921,4.118l92.911,51.849c1.292.715,2.524.03,2.752-1.527l.406-2.455A4.3,4.3,0,0,0,1852.78,964.94Z" transform="translate(-1756.677 -912.807)" fill="#9eafff" fill-rule="evenodd" opacity="0.2"/>
                <path id="Path_3071" data-name="Path 3071" d="M1791.289,930.462l-31.42-17.372a1.846,1.846,0,0,0-1.584-.176,2.028,2.028,0,0,0-1.166,1.706l-.406,2.455a4.3,4.3,0,0,0,1.921,4.118l31.421,17.371c1.291.715,2.523.03,2.752-1.527l.405-2.455A4.3,4.3,0,0,0,1791.289,930.462Z" transform="translate(-1756.677 -912.808)" fill="#9eafff" fill-rule="evenodd" opacity="0.5"/>
              </g>
              <g id="Group_1111" data-name="Group 1111" transform="translate(107.794 97.484)">
                <path id="Path_3072" data-name="Path 3072" d="M2094.586,1026.762c-.88-2.97-3.16-8.933-3.34-12.043-.184-3.166,1.8-5.165,4.427-4.464s4.908,3.835,5.091,7c.2,3.384-3.944,6.879-6.178,9.506Zm.984-14.328c-1.583-.422-2.776.781-2.666,2.688a4.767,4.767,0,0,0,3.065,4.215c1.583.422,2.776-.782,2.666-2.688A4.767,4.767,0,0,0,2095.57,1012.434Z" transform="translate(-2085.841 -1010.115)" fill="#c5cfff" fill-rule="evenodd"/>
                <path id="Path_3073" data-name="Path 3073" d="M2080.388,1077.213c.426.948,1.015,2.16,1.653,3.49s1.323,2.784,1.94,4.217a12.642,12.642,0,0,0,.284-1.933c.331,1.3.844,3.128,1.22,4.907a13.337,13.337,0,0,1,.4,4.617,3.168,3.168,0,0,1-1.632,2.478,3.866,3.866,0,0,1-3.18-.09,2.006,2.006,0,0,0,2.29-2.164,5.659,5.659,0,0,0-.906-3.2,6.844,6.844,0,0,0-2.3-2.484,2.436,2.436,0,0,0-2.348-.323c-.609.308-.993.71-1.026,2.029a7.852,7.852,0,0,0,2.129,4.834,13.153,13.153,0,0,1-3.1-3.7,11.245,11.245,0,0,1-1.472-4.354,9.107,9.107,0,0,1,.6-4.014c.447-1.281,1.03-2.448,1.412-3.315a18.691,18.691,0,0,0,.187,2.215,23.732,23.732,0,0,1,2.078-1.79C2079.3,1078.1,2079.929,1077.626,2080.388,1077.213Z" transform="translate(-2074.301 -1055.844)" fill="#c5cfff" fill-rule="evenodd"/>
              </g>
            </g>
          </g>
        </g>
      </g>
      <g id="Group_1124" data-name="Group 1124" transform="translate(37.467 148.747)">
        <path id="Path_3074" data-name="Path 3074" d="M1678.418,1523.613l-48.472-27.606c-5.284-2.414-12.847-4.336-18.231-1.534-4.905,2.553-12.986,7.778-16.559,9.815-2.714,1.548-12.135,7.192-6.267,10.383,17.261,9.386,34.343,19.942,51.871,29.477,3.315,1.8,8.164,2.455,13.255,2.032a35.1,35.1,0,0,0,14.356-4.276q4.37-2.541,8.6-5c3.8-2.214,5.818-4.831,6.018-7.251C1683.181,1527.286,1681.661,1525.094,1678.418,1523.613Z" transform="translate(-1586.999 -1296.578)" fill="#d2e3ff" fill-rule="evenodd" opacity="0.5" style="mix-blend-mode: multiply;isolation: isolate"/>
        <g id="Group_1123" data-name="Group 1123" transform="translate(22.533)">
          <g id="Group_1117" data-name="Group 1117" transform="translate(40.144 26.998)">
            <g id="Group_1116" data-name="Group 1116" transform="translate(30.042)">
              <path id="Path_3075" data-name="Path 3075" d="M1902.107,970.609c1.671,1.86,2.7,4.461,2.518,6.136-.081.747-3.2,2.22-3.813,2.452-2.029.771-6.746,1.988-10.568,3.435l-1.8-1.893-.141-2.556C1893.974,975.879,1896.023,971.464,1902.107,970.609Z" transform="translate(-1885.062 -967.497)" fill="#ff806e" fill-rule="evenodd"/>
              <path id="Path_3076" data-name="Path 3076" d="M1916.5,983.71c-.122.611-5.06,2.391-5.932,2.307-2.347-.228,4.6-5.391,5.106-4.31A7.1,7.1,0,0,1,1916.5,983.71Z" transform="translate(-1899.909 -974.959)" fill="#ef654f" fill-rule="evenodd"/>
              <path id="Path_3077" data-name="Path 3077" d="M1881.84,975.474c2-1.118,4.044-2.5,6.562-3.69,4.427-2.091,10.169-6.034,14.632-8.916,1.558-1.005-.121-2.6-1.624-1.827-2.055,1.054-4.007,1.974-6.134,3.13a7.121,7.121,0,0,0-3.759-3.1c-1.881-.647-6.665,2.769-8.77,5.259-1.542,1.823-1.517,2.908-2.749,4a13.807,13.807,0,0,1-1.847,1.422C1877.917,974.768,1879.68,973.886,1881.84,975.474Z" transform="translate(-1878.13 -960.838)" fill-rule="evenodd" fill="url(#linear-gradient-46)"/>
              <path id="Path_3078" data-name="Path 3078" d="M1898.821,988.8c2.85-1.324,6.124-2.674,6.9-.346l-4.108,2.633c-5.813,4.4-4.534,1-11.667,2.774l-.785-.742C1894.915,989.586,1892.631,988.469,1898.821,988.8Z" transform="translate(-1885.644 -978.793)" fill="#ff9484" fill-rule="evenodd"/>
            </g>
            <path id="Path_3079" data-name="Path 3079" d="M1810.752,991.633c1.089-.385,1.964-.227,2.792-.6a11.118,11.118,0,0,0,1.868-1.179c1.692.735,3.454,3.212,4.575,5.718-.786.813-.943.8-1.721,1.711-.579.675-.784,2.633-1.36,3.345-3.578,4.426-12.2,10.72-16.569,14.569-5.739,5.056-11.835,7.151-15.477,1.782-2.108-3.106-1.3-7.928,4.575-12.955C1796.023,998.385,1807.651,992.728,1810.752,991.633Z" transform="translate(-1783.801 -980.613)" fill-rule="evenodd" fill="url(#linear-gradient-47)"/>
          </g>
          <path id="Path_3080" data-name="Path 3080" d="M1673.535,1524.924c-2.232,2.181-3.594,2.339-4.015,4.461-2.149,3.869-4.221,5.627-6.94,4.8-3.792-1.151-4.572-2.426-4.617-5.215-.381-4.186-.282-5.232.589-7.832a9.537,9.537,0,0,1,5.922-5.683c.815-.267,3.976.259,4.894-.461,3.746-2.939,4.641-3.511,6.456-3.106,2.241.5,2.413,1.843,2.484,3.086C1678.48,1517.948,1675.932,1522.309,1673.535,1524.924Z" transform="translate(-1657.752 -1309.315)" fill="#273087" fill-rule="evenodd"/>
          <path id="Path_3081" data-name="Path 3081" d="M1673.987,1529.142c-2.232,2.181-3.594,2.339-4.015,4.461-2.149,3.869-4.221,5.628-6.94,4.8-3.645-1.107-4.479-2.352-4.606-4.9-.005-.1-.009-.207-.01-.316,2.316,3.057,4.815,4.059,7.24,2.756,1.746-.938,3.087-3.213,4.663-4.948,3.93-4.326,7.485-6.491,8.261-13.036a3.915,3.915,0,0,1,.182,1.231C1678.931,1522.166,1676.384,1526.527,1673.987,1529.142Z" transform="translate(-1658.204 -1313.532)" fill="#fff" fill-rule="evenodd"/>
          <path id="Path_3082" data-name="Path 3082" d="M1660.995,1512.647c-.257,2.364-.175,3.949-.442,5.77a16.649,16.649,0,0,1-.741,3.015c1.125-2.346,2.51-2.9,4.13-2.2,2.494,1.082,2.957,3.937,4.68,3.592.723-.145,1.3-1.343,1.456-2.384a53.685,53.685,0,0,0,.65-7.429Z" transform="translate(-1659.156 -1309.909)" fill="#ffa495" fill-rule="evenodd"/>
          <g id="Group_1118" data-name="Group 1118" transform="translate(22.407 217.839)">
            <path id="Path_3083" data-name="Path 3083" d="M1733.27,1582.423c1.088-.024,4.76-3.475,8.237-1.733,4.176,2.092,12.1.239,16.106,1.2.713.171,2.106-.353,2.382.136.863,1.533,1.7,3.826-.424,5.326a36.278,36.278,0,0,1-7.091,3.341,59.931,59.931,0,0,1-8.971,2.539c-2.954.462-4.3.652-5.407,1.506a7.872,7.872,0,0,1-4.125.992,6.951,6.951,0,0,1-5.259-3.671c-.332-.71-.342-3.811.041-5.823a29.461,29.461,0,0,1,1.86-5.083Z" transform="translate(-1728.354 -1573.787)" fill="#fff" fill-rule="evenodd"/>
            <path id="Path_3084" data-name="Path 3084" d="M1746.507,1561.28c-1.321,3.171-.916,8.078-4.046,9.782-2.093,1.139-5.37,1.149-6.8-2.1-.8-1.814.261-4.913.027-8.895Z" transform="translate(-1733.05 -1560.064)" fill="#ffa495" fill-rule="evenodd"/>
            <path id="Path_3085" data-name="Path 3085" d="M1742.433,1573.512c2.4.7,9.022.232,13.209.57,1.8.145,3.414.132,4.255,1.766.775,1.5.369,2.791-1.384,4.031a29.678,29.678,0,0,1-6.4,3.139,59.907,59.907,0,0,1-8.971,2.539c-2.954.462-4.3.652-5.407,1.506a7.87,7.87,0,0,1-4.125.993,7.263,7.263,0,0,1-5.259-3.9c-.332-.71-.342-3.579.041-5.592a10.329,10.329,0,0,1,.308-1.184c.33-3.151,1.37-4.426,2.351-3.886a6.059,6.059,0,0,1,2.361,3.159,3.086,3.086,0,0,0,1.825,1.74c1.606.506,3.072-.39,4.021-1.767a11.366,11.366,0,0,0,1.1-3.192c0-.108.007-.215,0-.321.315-2.754,1.655-2.515,1.451-1.934A2.37,2.37,0,0,0,1742.433,1573.512Z" transform="translate(-1728.106 -1567.385)" fill="#273087" fill-rule="evenodd"/>
            <path id="Path_3086" data-name="Path 3086" d="M1825.291,1584.385c-.031,1.065,1.6,1.166,1.128,3.037.785-.769-.311-2.976-.795-3.312C1825.426,1583.972,1825.257,1583.915,1825.291,1584.385Z" transform="translate(-1794.337 -1576.385)" fill="#fff" fill-rule="evenodd"/>
          </g>
          <path id="Path_3087" data-name="Path 3087" d="M1689.2,1183.586c-1.248,10-3.68,42.539-6.909,50.844-4.856,12.487-8.222,33.2-11.171,46.93-.947,2.789-8.73,3.584-10.694.475.082-12.847-1.014-22.27-.612-29.319.449-7.893,3.414-19.916,6.437-24.513.391-5.652.8-22.229-.2-32.7-.362-3.778-3.913-16.577,2.4-24.835Z" transform="translate(-1659.094 -1076.707)" fill-rule="evenodd" fill="url(#linear-gradient-48)"/>
          <path id="Path_3088" data-name="Path 3088" d="M1672.86,1509.279c-.207.963-.59,2.008-.784,2.91-.947,2.789-8.73,3.584-10.694.475.007-1.16-.215-2.384-.252-3.5C1664.421,1511.839,1669.528,1511.038,1672.86,1509.279Z" transform="translate(-1660.054 -1307.536)" fill-rule="evenodd" fill="url(#linear-gradient-49)"/>
          <path id="Path_3089" data-name="Path 3089" d="M1714.334,1211.66c-1.248,10-3.679,42.539-6.909,50.844-4.856,12.487-7.569,30.01-10.517,43.741-1.211-16.157,1.337-31.7,5.637-45.669,1.383-19.971-9.11-28.024.434-45.675Z" transform="translate(-1684.233 -1104.781)" fill="#1e2353" fill-rule="evenodd" opacity="0.3" style="mix-blend-mode: multiply;isolation: isolate"/>
          <path id="Path_3090" data-name="Path 3090" d="M1738.711,1244.486c-2.516,14.86-4.117,40.773-5.414,55.576-.644,3.52-10.182,5.965-12.433,1.84-.545-13.659-4.168-29.893-2.758-45.1a49.416,49.416,0,0,1,2.845-12.2c-.189-5.487-.351-23.223-1.177-33.583-2.847-6.2-8.411-16.855-2.362-28.54,4.8,1.861,17.4,1.18,22.279-3.482,2.262,7.749,3.526,19.285,3.224,31.812C1742.533,1226.656,1740.071,1236.453,1738.711,1244.486Z" transform="translate(-1696.565 -1082.519)" fill-rule="evenodd" fill="url(#linear-gradient-50)"/>
          <path id="Path_3091" data-name="Path 3091" d="M1746.115,1549.06l-.4,3.208c-.644,3.52-10.182,5.965-12.433,1.84-.177-1.044-.229-2.472-.359-3.518C1735.061,1554.54,1743.683,1552.237,1746.115,1549.06Z" transform="translate(-1708.982 -1334.726)" fill-rule="evenodd" fill="url(#linear-gradient-51)"/>
          <path id="Path_3092" data-name="Path 3092" d="M1673.29,1012.479c.866,7.8-1.481,15.477.908,22.6.107.736.174,3.624.3,4.409,1.573,9.229,21.094,18.567,37.373,9.712.09-1.144-.014-2.34.075-4.459-.3-1.979.554-4.1.548-5.308-.023-5.022-1.586-7.59-.837-13.179,1.525-11.369,7.823-22.3,4.34-31.24-.748-1.92-2.058-2.851-3.543-4.043-3.847-3.091-23.746-13.223-29.778-13.938C1665.164,974.763,1672.351,1004.013,1673.29,1012.479Z" transform="translate(-1666.807 -944.792)" fill-rule="evenodd" fill="url(#linear-gradient-52)"/>
          <g id="Group_1120" data-name="Group 1120" transform="translate(13.941)">
            <g id="Group_1119" data-name="Group 1119">
              <path id="Path_3093" data-name="Path 3093" d="M1728.677,913.685c-1.107.548-6.728-.248-6.563.255.081,2.515.83,4.041,1.072,7.486-6.181-.864-14.288-1.756-14.611-6.5.026-.38.048-.759.063-1.132.007-.044.013-.087.021-.13l-.016,0a8.414,8.414,0,0,0-.5-4.061c-1.309-2.115-4-4.473-4.951-7.681-1.523-5.127-.969-10.823,3.812-14.619,8.73-6.932,19.894-2,22.722,8.14.553,1.98-1.009,3.052-.954,4.745.011.331.449.677.8,1.412C1730.073,902.617,1730.034,913.013,1728.677,913.685Z" transform="translate(-1702.15 -881.525)" fill="#e7a376" fill-rule="evenodd"/>
              <path id="Path_3094" data-name="Path 3094" d="M1728.62,913.628c-1.108.548-6.671-.191-6.506.312.081,2.515.829,4.041,1.072,7.486-3.59.881-13.269-.409-14.717-5.856-.026-1.147.025-5.4-.323-5.966-1.309-2.115-4-4.473-4.951-7.681-1.523-5.127-.969-10.823,3.812-14.619,8.73-6.932,19.894-2,22.722,8.14.553,1.98-1.009,3.052-.954,4.745.011.331.449.677.8,1.412C1730.073,902.617,1729.977,912.956,1728.62,913.628Z" transform="translate(-1702.15 -881.525)" fill-rule="evenodd" fill="url(#linear-gradient-53)"/>
              <path id="Path_3095" data-name="Path 3095" d="M1728.448,913.685c-.587.316-3.015.108-4.821-.586a8.424,8.424,0,0,1-2.141-1.486c-.749-.3-2.411-2.663.165-6.421,2.511-3.664-12.7,5.715-13.5,4.413-1.309-2.115-4-4.473-4.951-7.681-1.523-5.127-.969-10.823,3.812-14.619,8.73-6.932,19.894-2,22.722,8.14.553,1.98-1.009,3.052-.954,4.745.011.331.449.677.8,1.412C1730.073,902.617,1729.782,912.969,1728.448,913.685Z" transform="translate(-1702.15 -881.525)" fill-rule="evenodd" fill="url(#linear-gradient-54)"/>
              <path id="Path_3096" data-name="Path 3096" d="M1756.324,949.512c-3.127-2.915-6.146,6.359-1.113,6.261C1753.247,953.694,1754.739,950.4,1756.324,949.512Z" transform="translate(-1736.283 -925.734)" fill="#ffa698" fill-rule="evenodd"/>
              <path id="Path_3097" data-name="Path 3097" d="M1758.6,951.444c.469-1.3.074-1.769-.5-1.629a3.685,3.685,0,0,0-1.98,2.4c-.748,2.168.323,4.906,2.417,3.837-1.8.1-1.632-2.066-1.092-3.406C1757.812,951.735,1758.38,951.091,1758.6,951.444Z" transform="translate(-1738.571 -926.311)" fill="#ffb49c" fill-rule="evenodd"/>
              <path id="Path_3098" data-name="Path 3098" d="M1760.712,956.823c.5.938.678,1.495.516,1.817-.113.224-.46.48-1.028-.071A3.237,3.237,0,0,1,1760.712,956.823Z" transform="translate(-1741.513 -931.104)" fill="#ffa698" fill-rule="evenodd"/>
              <path id="Path_3099" data-name="Path 3099" d="M1724.664,889.55l.121-.063a5.352,5.352,0,0,0,1.766-8.452c-3.428-3.042-12.732-2.725-18.63.313-6,3.092-7.476,10.786-5.68,16.832,1.194,4.024,4.1,6.125,5.553,9.173a3.649,3.649,0,0,0,3.7,1.349c4.163-.861,5.125-5.253,7.626-7.185,1.373-1.061,2.784-1.344,3.3,1.55.1,1.273.119,2.563.211,3.733.146,1.84-.313,2.184,1.246,2.814,1.495.605,4.406,1.2,4.9,1,.389-.152.364-2.449.292-4.165-.157-.013-.164.589-.244.577-.154-.023-.34-.061-.561-.082a6.714,6.714,0,0,1,.249-2.084,3.29,3.29,0,0,1,.685-1.562,2.655,2.655,0,0,0,.083-1.349,4.243,4.243,0,0,0-1.779,2.512,12.659,12.659,0,0,0-.463,2.283,4.335,4.335,0,0,1-2.132-.7c-.877-1.014-1.033-2.286-1.349-4.271-.074-3.489.079-4.007,1.894-6.6.5-.716.527-2.18-.716-5.444C1724.71,889.673,1724.685,889.612,1724.664,889.55Z" transform="translate(-1701.525 -878.001)" fill="#562e65" fill-rule="evenodd"/>
              <path id="Path_3100" data-name="Path 3100" d="M1750.147,885.591c-1.3,1.623-6.859-2.129-14.647-.7,1.668-5.144,2.632-6.236,4.971-7.741,3.048-1.962,8.183-1.161,9.793,1.543A6.474,6.474,0,0,1,1750.147,885.591Z" transform="translate(-1724.68 -876.066)" fill-rule="evenodd" fill="url(#linear-gradient-55)"/>
            </g>
            <path id="Path_3101" data-name="Path 3101" d="M1714.4,978.277c-1.688.52-3.387,2.191-3.078,3.3,1.68,6.866,14.439,8.167,22.263,6.514.094-.019-3.044-4.134-4.542-4.621C1724.114,983.958,1715.915,982.331,1714.4,978.277Z" transform="translate(-1708.174 -945.725)" fill="#0eade8" fill-rule="evenodd"/>
          </g>
          <path id="Path_3102" data-name="Path 3102" d="M1769.15,1071a65.2,65.2,0,0,1-.8-10.718,101.3,101.3,0,0,1,2.689-15.163c1.761-7,3.2-14.271,1.442-18.777-.748-1.921-1.588-1.923-3.227-2.886-3.11-1.827-8.108.892-10.774,5.017-5.1,8.772-5.11,30.515-3.91,37.254.588,3.3,2.027,6.286,4.535,7.043C1760.52,1073.2,1766.557,1072.572,1769.15,1071Z" transform="translate(-1723.293 -976.123)" fill="#9c5fef" fill-rule="evenodd" opacity="0.35" style="mix-blend-mode: multiply;isolation: isolate"/>
          <g id="Group_1122" data-name="Group 1122" transform="translate(32.897 46.657)">
            <g id="Group_1121" data-name="Group 1121" transform="translate(34.649 8.502)">
              <path id="Path_3103" data-name="Path 3103" d="M1909.27,1056.4l1.656.793s1.838-2.284,1.874-2.427l.774-3.108-.832-1.654c-.454-.3-.8-.727-1.115-.687-.69.086-.885,1.545-1.169,2.632C1910.087,1053.37,1909.669,1054.941,1909.27,1056.4Z" transform="translate(-1896.713 -1049.3)" fill="#ff806e" fill-rule="evenodd"/>
              <path id="Path_3104" data-name="Path 3104" d="M1883.6,1049.708l-4.335,1.139c-3.277,2.716-4.539,3.806-5.566,5.2-1.352,1.83-1.363,3.51-3.853,7.915l1.631,4.274,1.848-.36c1.662-1.125,4.049-1.459,6.542-2.608,4.277-1.97,5.506-2.661,6.406-4.89a52.02,52.02,0,0,0,2.356-8.82c.274-1.393-3.1-2.433-3.92-2.279-.748.14-.454,1.173,1.158,2.062-2.028,2.843-2.822,3.948-6.323,3.076l1.419-1.7C1882.764,1052.189,1883.552,1051.746,1883.6,1049.708Z" transform="translate(-1869.842 -1049.26)" fill="#ff9484" fill-rule="evenodd"/>
            </g>
            <path id="Path_3105" data-name="Path 3105" d="M1762.836,1066.2c-1.332-1.945-1.515-4.392-1.732-8.071a169.96,169.96,0,0,1,1.611-25.656c1.683-10.158,10.309-11.978,14.7-7.834,3.77,3.56,1.776,11.33,1.174,15.7-.238,1.723-1.282,6.43-2.15,10.6,5.269-2.906,12.251-6.361,15.427-7.074,1.09-.245,1.214-.052,2.721-.28.808-.457,1.781-.764,2.223-.984,1.541.9,3.272,3.875,4.06,6.411-.847.691-1.354,1.1-2.207,1.888-.634.583-1.588,2.466-2.223,3.084-3.943,3.841-14.919,9.687-19.556,12.883-6.154,4.241-10.93,4-13.076,1.046A8.258,8.258,0,0,1,1762.836,1066.2Z" transform="translate(-1761.047 -1022.566)" fill-rule="evenodd" fill="url(#linear-gradient-56)"/>
          </g>
          <path id="Path_3106" data-name="Path 3106" d="M1666.382,1536.231c-1.883-3.457-3.727-4.42-5.213-4.535-1.971-.152-3.214,1.373-2.94,6.428l2.209,2.42,3.525.368,1.578-1.315Z" transform="translate(-1658.051 -1322.885)" fill="#273087" fill-rule="evenodd"/>
          <path id="Path_3107" data-name="Path 3107" d="M1713.142,1512.87c.774.409,1.589-.319,2.36,1.785a2.62,2.62,0,0,0-2.775-2.773C1712.309,1511.916,1712.311,1512.43,1713.142,1512.87Z" transform="translate(-1695.032 -1309.384)" fill="#fff" fill-rule="evenodd"/>
        </g>
      </g>
    </g>
  </g>
</svg>
